<!-- icon666.com - MILLIONS vector ICONS FREE --><svg viewBox="-24 0 512 512.001" xmlns="http://www.w3.org/2000/svg"><path d="m7.574219 355.976562h224.1875v148.449219h-224.1875zm0 0" fill="#88e9ff"></path><path d="m201.46875 355.976562v81.796876c0 22.3125-18.085938 40.394531-40.394531 40.394531h-153.5v26.257812h224.1875v-148.449219zm0 0" fill="#2dd3f9"></path><path d="m7.574219 205.507812h224.1875v150.46875h-224.1875zm0 0" fill="#ff94e6"></path><path d="m201.46875 205.507812v83.816407c0 22.3125-18.085938 40.394531-40.394531 40.394531h-153.5v26.257812h224.1875v-150.46875zm0 0" fill="#ff71d0"></path><path d="m7.574219 55.035156h224.1875v150.472656h-224.1875zm0 0" fill="#ffe266"></path><path d="m201.46875 55.035156v83.820313c0 22.308593-18.085938 40.394531-40.394531 40.394531h-153.5v26.257812h224.1875v-150.472656zm0 0" fill="#fcd21d"></path><path d="m138.855469 7.574219h68.671875v47.464843h-68.671875zm0 0" fill="#ffe266"></path><path d="m193.972656 7.574219v23.972656c0 4.988281-4.042968 9.035156-9.035156 9.035156h-46.082031v14.457031h68.671875v-47.464843zm0 0" fill="#fcd21d"></path><path d="m31.808594 7.574219h68.671875v47.464843h-68.671875zm0 0" fill="#ffe266"></path><path d="m86.929688 7.574219v23.972656c0 4.988281-4.046876 9.035156-9.039063 9.035156h-46.082031v14.457031h68.671875v-47.464843zm0 0" fill="#fcd21d"></path><path d="m231.761719 353.957031h224.191406v150.46875h-224.191406zm0 0" fill="#8ef26d"></path><path d="m425.65625 353.957031v83.820313c0 22.308594-18.085938 40.394531-40.394531 40.394531h-153.5v26.253906h224.191406v-150.46875zm0 0" fill="#72dd4b"></path><path d="m363.046875 306.492188h68.667969v47.464843h-68.667969zm0 0" fill="#8ef26d"></path><path d="m418.164062 306.492188v23.972656c0 4.988281-4.046874 9.035156-9.039062 9.035156h-46.082031v14.457031h68.671875v-47.464843zm0 0" fill="#72dd4b"></path><path d="m256 306.492188h68.671875v47.464843h-68.671875zm0 0" fill="#8ef26d"></path><path d="m311.117188 306.492188v23.972656c0 4.988281-4.042969 9.035156-9.035157 9.035156h-46.082031v14.457031h68.671875v-47.464843zm0 0" fill="#72dd4b"></path><path d="m455.953125 346.382812h-16.664063v-39.890624c0-4.183594-3.390624-7.574219-7.574218-7.574219h-68.671875c-4.179688 0-7.574219 3.390625-7.574219 7.574219v39.890624h-23.226562v-39.890624c0-4.183594-3.390626-7.574219-7.574219-7.574219h-68.667969c-4.183594 0-7.574219 3.390625-7.574219 7.574219v39.890624h-9.089843v-65.136718c0-4.183594-3.390626-7.574219-7.574219-7.574219-4.183594 0-7.574219 3.390625-7.574219 7.574219v67.15625h-209.039062v-135.320313h209.042968v32.820313c0 4.183594 3.390625 7.574218 7.570313 7.574218 4.183593 0 7.574219-3.390624 7.574219-7.574218v-190.867188c0-4.179687-3.390626-7.570312-7.574219-7.570312h-16.660157v-39.890625c0-4.183594-3.390624-7.574219-7.574218-7.574219h-68.671875c-4.183594 0-7.574219 3.390625-7.574219 7.574219v39.890625h-23.226562v-39.890625c0-4.183594-3.390626-7.574219-7.574219-7.574219h-68.671875c-4.179688 0-7.570313 3.390625-7.570313 7.574219v39.890625h-16.664062c-4.183594 0-7.574219 3.390625-7.574219 7.574218v60.589844c0 4.183594 3.390625 7.574219 7.574219 7.574219 4.183593 0 7.574219-3.390625 7.574219-7.574219v-53.019531h209.042968v135.324219h-209.042968v-46.960938c0-4.183594-3.390626-7.574218-7.574219-7.574218-4.183594 0-7.574219 3.390624-7.574219 7.574218v353.453125c0 4.183594 3.390625 7.574219 7.574219 7.574219h353.453125c4.179687 0 7.570312-3.390625 7.570312-7.574219 0-4.183593-3.390625-7.574219-7.570312-7.574219h-121.691406v-135.320312h209.042968v135.320312h-52.007812c-4.179688 0-7.574219 3.390626-7.574219 7.574219 0 4.183594 3.394531 7.574219 7.574219 7.574219h59.582031c4.183594 0 7.574219-3.390625 7.574219-7.574219v-150.46875c0-4.183593-3.390625-7.574219-7.574219-7.574219zm-416.570313-298.917968v-32.316406h53.523438v32.316406zm107.046876 0v-32.316406h53.523437v32.316406zm-131.28125 316.085937h209.042968v133.300781h-209.042968zm248.425781-17.167969v-32.316406h53.523437v32.316406zm107.046875 0v-32.316406h53.519531v32.316406zm0 0"></path></svg>