<!-- icon666.com - MILLIONS vector ICONS FREE --><svg viewBox="0 0 64 64" xmlns="http://www.w3.org/2000/svg"><g id="_20_Password" data-name="20 Password"><path d="m6 22v8a1 1 0 0 0 1 1h4a1 1 0 0 0 1-1v-8c.3268-9.26 13.67-9.2669 14 0v8a1 1 0 0 0 1 1h4a1 1 0 0 0 1-1v-8c-.71-17.2372-25.2839-17.25-26 0z" fill="#46464e" style="fill: rgb(255, 255, 255);"></path><rect fill="#ffa000" height="27" rx="3" width="34" x="2" y="29" style="fill: rgb(0, 238, 255);"></rect><rect fill="#26a6fe" height="10" rx="3" width="36" x="26" y="32" style="fill: rgb(236, 237, 239);"></rect><rect fill="#26a6fe" height="10" rx="3" width="36" x="26" y="43" style="fill: rgb(236, 237, 239);"></rect><g fill="#eee"><path d="m54.5 45.5c-3.3336-.0454-3.3335 5.0444 0 4.9994 3.3333.0457 3.3333-5.0441 0-4.9994z" fill="#eee"></path><path d="m47.5 45.5c-3.3336-.0454-3.3335 5.0444 0 4.9994 3.3333.0457 3.3333-5.0441 0-4.9994z" fill="#eee"></path><path d="m40.5 45.5c-3.3336-.0454-3.3335 5.0444 0 4.9994 3.3333.0457 3.3333-5.0441 0-4.9994z" fill="#eee"></path><path d="m33.5 45.5c-3.3336-.0454-3.3335 5.0444 0 4.9994 3.3333.0457 3.3333-5.0441 0-4.9994z" fill="#eee"></path></g></g><g id="Layer_32" data-name="Layer 32"><path d="m59 42a3.0088 3.0088 0 0 0 3-3v-4a3.0088 3.0088 0 0 0 -3-3h-23a3.0088 3.0088 0 0 0 -3-3h-1v-7c-.71-17.2372-25.2839-17.25-26 0v7h-1a3.0088 3.0088 0 0 0 -3 3v21a3.0088 3.0088 0 0 0 3 3h28a3.0088 3.0088 0 0 0 3-3h23a3.0088 3.0088 0 0 0 3-3v-4a3.0088 3.0088 0 0 0 -3-3h-23v-1zm0-8a1.0029 1.0029 0 0 1 1 1v4a1.0029 1.0029 0 0 1 -1 1h-30a1.0029 1.0029 0 0 1 -1-1v-4a1.0029 1.0029 0 0 1 1-1zm-51-12c.6005-14.5853 21.394-14.5966 22 0v7h-2v-7c-.4693-11.9249-17.5264-11.9341-18 0v7h-2zm4 7v-7c.3268-9.26 13.67-9.2669 14 0v7zm47 16a1.0029 1.0029 0 0 1 1 1v4a1.0029 1.0029 0 0 1 -1 1h-30a1.0029 1.0029 0 0 1 -1-1v-4a1.0029 1.0029 0 0 1 1-1zm-25-2h-5a3.0088 3.0088 0 0 0 -3 3v4a3.0088 3.0088 0 0 0 3 3h5a1.0029 1.0029 0 0 1 -1 1h-28a1.0029 1.0029 0 0 1 -1-1v-21a1.0029 1.0029 0 0 1 1-1h28a1.0029 1.0029 0 0 1 1 1h-5a3.0088 3.0088 0 0 0 -3 3v4a3.0088 3.0088 0 0 0 3 3h5zm20.5 7.5c-3.3333.045-3.3334-5.0448 0-4.9994 3.3333-.0453 3.3333 5.0445 0 4.9994zm0-3a.5.5 0 0 0 0 1 .5.5 0 0 0 0-1zm-7 3c-3.3333.045-3.3334-5.0448 0-4.9994 3.3333-.0453 3.3333 5.0445 0 4.9994zm0-3a.5.5 0 0 0 0 1 .5.5 0 0 0 0-1zm-7 3c-3.3333.045-3.3334-5.0448 0-4.9994 3.3333-.0453 3.3333 5.0445 0 4.9994zm0-3a.5.5 0 0 0 0 1 .5.5 0 0 0 0-1zm-7 3c-3.3333.045-3.3334-5.0448 0-4.9994 3.3333-.0453 3.3333 5.0445 0 4.9994zm0-3a.5.5 0 0 0 0 1 .5.5 0 0 0 0-1z" fill="#000000"></path></g></svg>