<!-- icon666.com - MILLIONS vector ICONS FREE --><svg viewBox="0 0 64 64" xmlns="http://www.w3.org/2000/svg"><g id="Outline_color" data-name="Outline color"><rect fill="#a9adbc" height="20" rx="10" width="58" x="2.5" y="12"/><rect fill="#f8f8ff" height="12" rx="6" width="50" x="6.5" y="16"/><g fill="#9b9faa"><path d="m15.5 22.5a.5.5 0 0 1 -.22-.05l-2-1a.5.5 0 0 1 .45-.89l1.78.89 1.78-.89a.5.5 0 1 1 .45.89l-2 1a.5.5 0 0 1 -.24.05z"/><path d="m17.5 23.5a.5.5 0 0 1 -.22-.05l-1.78-.89-1.78.89a.5.5 0 0 1 -.45-.89l2-1a.5.5 0 0 1 .45 0l2 1a.5.5 0 0 1 -.22.95z"/><path d="m15.5 24.5a.5.5 0 0 1 -.5-.5v-4a.5.5 0 0 1 1 0v4a.5.5 0 0 1 -.5.5z"/><path d="m23.5 22.5a.5.5 0 0 1 -.22-.05l-2-1a.5.5 0 0 1 .45-.89l1.78.89 1.78-.89a.5.5 0 1 1 .45.89l-2 1a.5.5 0 0 1 -.24.05z"/><path d="m25.5 23.5a.5.5 0 0 1 -.22-.05l-1.78-.89-1.78.89a.5.5 0 0 1 -.45-.89l2-1a.5.5 0 0 1 .45 0l2 1a.5.5 0 0 1 -.22.95z"/><path d="m23.5 24.5a.5.5 0 0 1 -.5-.5v-4a.5.5 0 0 1 1 0v4a.5.5 0 0 1 -.5.5z"/><path d="m31.5 22.5a.5.5 0 0 1 -.22-.05l-2-1a.5.5 0 0 1 .45-.89l1.78.89 1.78-.89a.5.5 0 1 1 .45.89l-2 1a.5.5 0 0 1 -.24.05z"/><path d="m33.5 23.5a.5.5 0 0 1 -.22-.05l-1.78-.89-1.78.89a.5.5 0 0 1 -.45-.89l2-1a.5.5 0 0 1 .45 0l2 1a.5.5 0 0 1 -.22.95z"/><path d="m31.5 24.5a.5.5 0 0 1 -.5-.5v-4a.5.5 0 0 1 1 0v4a.5.5 0 0 1 -.5.5z"/><path d="m39.5 22.5a.5.5 0 0 1 -.22-.05l-2-1a.5.5 0 0 1 .45-.89l1.78.89 1.78-.89a.5.5 0 1 1 .45.89l-2 1a.5.5 0 0 1 -.24.05z"/><path d="m41.5 23.5a.5.5 0 0 1 -.22-.05l-1.78-.89-1.78.89a.5.5 0 0 1 -.45-.89l2-1a.5.5 0 0 1 .45 0l2 1a.5.5 0 0 1 -.22.95z"/><path d="m39.5 24.5a.5.5 0 0 1 -.5-.5v-4a.5.5 0 0 1 1 0v4a.5.5 0 0 1 -.5.5z"/><path d="m47.5 22.5a.5.5 0 0 1 -.22-.05l-2-1a.5.5 0 0 1 .45-.89l1.78.89 1.78-.89a.5.5 0 1 1 .45.89l-2 1a.5.5 0 0 1 -.24.05z"/><path d="m49.5 23.5a.5.5 0 0 1 -.22-.05l-1.78-.89-1.78.89a.5.5 0 0 1 -.45-.89l2-1a.5.5 0 0 1 .45 0l2 1a.5.5 0 0 1 -.22.95z"/><path d="m47.5 24.5a.5.5 0 0 1 -.5-.5v-4a.5.5 0 0 1 1 0v4a.5.5 0 0 1 -.5.5z"/></g><path d="m43.5 38h18v14h-18z" fill="#f0c500"/><path d="m60.5 32v6h-4v-6a4 4 0 0 0 -4-4 4 4 0 0 0 -4 4v6h-4v-6a8 8 0 0 1 8-8 8 8 0 0 1 8 8z" fill="#d2d0db"/><circle cx="52.5" cy="45" fill="#e1a600" r="3"/><path d="m17.95 20.78a.5.5 0 0 0 -.67-.22l-1.28.63v-1.19a.5.5 0 0 0 -1 0v1.19l-1.28-.64a.5.5 0 0 0 -.45.89l1.11.55-1.11.55a.5.5 0 0 0 .45.89l1.28-.62v1.19a.5.5 0 0 0 1 0v-1.19l1.28.64a.5.5 0 1 0 .45-.89l-1.11-.56 1.11-.55a.5.5 0 0 0 .22-.67z"/><path d="m25.95 20.78a.5.5 0 0 0 -.67-.22l-1.28.63v-1.19a.5.5 0 0 0 -1 0v1.19l-1.28-.64a.5.5 0 0 0 -.45.89l1.11.55-1.11.55a.5.5 0 0 0 .45.89l1.28-.62v1.19a.5.5 0 0 0 1 0v-1.19l1.28.64a.5.5 0 1 0 .45-.89l-1.11-.56 1.11-.55a.5.5 0 0 0 .22-.67z"/><path d="m33.95 20.78a.5.5 0 0 0 -.67-.22l-1.28.63v-1.19a.5.5 0 0 0 -1 0v1.19l-1.28-.64a.5.5 0 0 0 -.45.89l1.11.55-1.11.55a.5.5 0 0 0 .45.89l1.28-.62v1.19a.5.5 0 0 0 1 0v-1.19l1.28.64a.5.5 0 1 0 .45-.89l-1.11-.56 1.11-.55a.5.5 0 0 0 .22-.67z"/><path d="m41.95 20.78a.5.5 0 0 0 -.67-.22l-1.28.63v-1.19a.5.5 0 0 0 -1 0v1.19l-1.28-.64a.5.5 0 0 0 -.45.89l1.11.55-1.11.55a.5.5 0 0 0 .45.89l1.28-.62v1.19a.5.5 0 0 0 1 0v-1.19l1.28.64a.5.5 0 1 0 .45-.89l-1.11-.56 1.11-.55a.5.5 0 0 0 .22-.67z"/><path d="m47 24a.5.5 0 0 0 1 0v-1.19l1.28.64a.5.5 0 1 0 .45-.89l-1.11-.56 1.11-.55a.5.5 0 1 0 -.45-.89l-1.28.63v-1.19a.5.5 0 0 0 -1 0v1.19l-1.28-.64a.5.5 0 0 0 -.45.89l1.11.55-1.11.55a.5.5 0 0 0 .45.89l1.28-.62z"/><path d="m61.5 37.5h-.5v-5.5a8.45 8.45 0 0 0 -1.44-4.72 10.48 10.48 0 0 0 -9.06-15.78h-38a10.5 10.5 0 0 0 0 21h31.5v5h-.5a.5.5 0 0 0 -.5.5v14a.5.5 0 0 0 .5.5h18a.5.5 0 0 0 .5-.5v-14a.5.5 0 0 0 -.5-.5zm-58.5-15.5a9.51 9.51 0 0 1 9.5-9.5h38a9.46 9.46 0 0 1 8.39 13.91 8.55 8.55 0 0 0 -2.39-1.91 6.5 6.5 0 0 0 -6-9h-38a6.5 6.5 0 0 0 0 13h32.26a8.43 8.43 0 0 0 -.74 3h-31.52a9.51 9.51 0 0 1 -9.5-9.5zm42.3 5.5h-32.8a5.5 5.5 0 0 1 0-11h38a5.5 5.5 0 0 1 5.09 7.59 8.45 8.45 0 0 0 -10.29 3.41zm-.3 4.5a7.5 7.5 0 0 1 15 0v5.5h-3v-5.5a4.5 4.5 0 0 0 -9 0v5.5h-3zm4 5.5v-5h1.5a10.43 10.43 0 0 0 5.34-1.5 3.45 3.45 0 0 1 .16 1v5.5zm.05-6a3.48 3.48 0 0 1 6.38-1.4 9.44 9.44 0 0 1 -4.93 1.4zm11.95 20h-17v-13h17z"/><path d="m52.5 41.5a3.5 3.5 0 1 0 3.5 3.5 3.5 3.5 0 0 0 -3.5-3.5zm0 6a2.5 2.5 0 1 1 2.5-2.5 2.5 2.5 0 0 1 -2.5 2.5z"/></g></svg>