<!-- icon666.com - MILLIONS vector ICONS FREE -->
<svg width="64" height="64" viewBox="20 15 97 97" xmlns="http://www.w3.org/2000/svg">
  <g>
    <g>
      <path d="m34.489 42.416h59.021a0 0 0 0 1 0 0v60.792a5.792 5.792 0 0 1 -5.792 5.792h-47.436a5.792 5.792 0 0 1 -5.792-5.792v-60.792a0 0 0 0 1 -.001 0z" fill="#fa9579"/>
      <g fill="#654062">
        <path d="m79.333 32.971h-30.667a1.75 1.75 0 0 1 -1.75-1.75v-8.266a5.713 5.713 0 0 1 5.706-5.7h22.756a5.712 5.712 0 0 1 5.7 5.7v8.266a1.749 1.749 0 0 1 -1.745 1.75zm-28.917-3.5h27.167v-6.516a2.207 2.207 0 0 0 -2.2-2.2h-22.761a2.208 2.208 0 0 0 -2.206 2.2z"/>
        <path d="m64 95.541a1.75 1.75 0 0 1 -1.75-1.75v-36.166a1.75 1.75 0 0 1 3.5 0v36.166a1.75 1.75 0 0 1 -1.75 1.75z"/>
        <path d="m79.333 95.541a1.75 1.75 0 0 1 -1.75-1.75v-36.166a1.75 1.75 0 0 1 3.5 0v36.166a1.749 1.749 0 0 1 -1.75 1.75z"/>
        <path d="m48.666 95.541a1.75 1.75 0 0 1 -1.75-1.75v-36.166a1.75 1.75 0 0 1 3.5 0v36.166a1.749 1.749 0 0 1 -1.75 1.75z"/>
      </g>
      <rect fill="#ffe36e" height="13.195" rx="3.669" width="70" x="29" y="29.22"/>
    </g>
    <g fill="#4d2856">
      <path d="m93.511 70.818a1.75 1.75 0 0 0 -1.75 1.75v1.8a1.75 1.75 0 1 0 3.5 0v-1.8a1.751 1.751 0 0 0 -1.75-1.75z"/>
      <path d="m95.331 27.471h-14.248v-4.516a5.712 5.712 0 0 0 -5.7-5.7h-22.761a5.713 5.713 0 0 0 -5.706 5.7v4.516h-14.247a5.425 5.425 0 0 0 -5.419 5.419v5.857a5.425 5.425 0 0 0 5.419 5.419h.07v59.041a7.552 7.552 0 0 0 7.543 7.543h47.436a7.552 7.552 0 0 0 7.543-7.543v-19.854a1.75 1.75 0 1 0 -3.5 0v19.854a4.048 4.048 0 0 1 -4.043 4.043h-47.436a4.048 4.048 0 0 1 -4.043-4.043v-59.041h55.522v19.834a1.75 1.75 0 0 0 3.5 0v-19.834h.07a5.425 5.425 0 0 0 5.419-5.419v-5.857a5.425 5.425 0 0 0 -5.419-5.419zm-44.915-4.516a2.208 2.208 0 0 1 2.206-2.2h22.756a2.207 2.207 0 0 1 2.2 2.2v4.516h-27.162zm46.834 15.792a1.921 1.921 0 0 1 -1.919 1.919h-62.662a1.921 1.921 0 0 1 -1.919-1.919v-5.857a1.921 1.921 0 0 1 1.919-1.919h62.662a1.921 1.921 0 0 1 1.919 1.919z"/>
      <path d="m62.25 57.625v36.166a1.75 1.75 0 0 0 3.5 0v-36.166a1.75 1.75 0 0 0 -3.5 0z"/>
      <path d="m77.583 57.625v36.166a1.75 1.75 0 0 0 3.5 0v-36.166a1.75 1.75 0 0 0 -3.5 0z"/>
      <path d="m46.916 57.625v36.166a1.75 1.75 0 0 0 3.5 0v-36.166a1.75 1.75 0 0 0 -3.5 0z"/>
    </g>
  </g>
</svg>
