<!-- icon666.com - MILLIONS vector ICONS FREE --><svg viewBox="0 0 59 60" xmlns="http://www.w3.org/2000/svg"><g id="Page-1" fill="none" fill-rule="evenodd"><g id="034---Desktop-Health-Check" fill-rule="nonzero"><g id="Icons" transform="translate(1 1)"><path id="Shape" d="m44 44v3c-.0032948 1.1032019-.8967981 1.9967052-2 2h-40c-1.10320187-.0032948-1.9967052-.8967981-2-2v-3z" fill="#7f8e94"></path><path id="Shape" d="m41 44v3c-.0032948 1.1032019-.8967981 1.9967052-2 2h3c1.1032019-.0032948 1.9967052-.8967981 2-2v-3z" fill="#545c60" style="fill: rgb(128, 141, 147);"></path><path id="Shape" d="m44 16v28h-44v-28c.0032948-1.1032019.89679813-1.9967052 2-2h40c1.1032019.0032948 1.9967052.8967981 2 2z" fill="#00bcd4" style="fill: rgb(108, 215, 229);"></path><path id="Shape" d="m42 14h-3c1.1032019.0032948 1.9967052.8967981 2 2v28h3v-28c-.0032948-1.1032019-.8967981-1.9967052-2-2z" fill="#00838f" style="fill: rgb(84, 219, 232);"></path><path id="Shape" d="m29.88 52.4c-.6406817-1.0177618-.9772239-2.1973946-.97-3.4h-13.82c.0072239 1.2026054-.3293183 2.3822382-.97 3.4-.72 1.05-3.13 2.43-3.12 4.81.0114511.443201.37668.7950679.82.79h20.36c.44332.0050679.8085489-.346799.82-.79.01-2.38-2.4-3.76-3.12-4.81z" fill="#545c60" style="fill: rgb(128, 141, 147);"></path><path id="Shape" d="m37.5 0h1.5c.5522847 0 1 .44771525 1 1v4c0 .55228475-.4477153 1-1 1h-1.5c-1.3807119 0-2.5-1.11928813-2.5-2.5v-1c0-1.38071187 1.1192881-2.5 2.5-2.5z" fill="#ffdc00" style="fill: rgb(255, 136, 26);"></path><path id="Shape" d="m50.5 0h1.5c.5522847 0 1 .44771525 1 1v4c0 .55228475-.4477153 1-1 1h-1.5c-1.3807119 0-2.5-1.11928813-2.5-2.5v-1c0-1.38071187 1.1192881-2.5 2.5-2.5z" fill="#ffdc00" transform="matrix(-1 0 0 -1 101 6)" style="fill: rgb(255, 136, 26);"></path><circle id="Oval" cx="22" cy="30" fill="#9e9e9e" r="7"></circle><path id="Shape" d="m22 23c-.5044849.0007873-1.0074065.0561087-1.5.165 3.2064126.7087816 5.4891145 3.5511831 5.4891145 6.835s-2.2827019 6.1262184-5.4891145 6.835c2.6211486.579393 5.3427728-.3912156 7.0057888-2.4984637 1.663016-2.107248 1.9744743-4.9799318.8017312-7.3946348-1.172743-2.4147029-3.6231022-3.9460614-6.30752-3.9419015z" fill="#707070"></path><circle id="Oval" cx="22" cy="30" fill="#cfd8dc" r="3"></circle><path id="Shape" d="m52.4 18.4c.2090619.1999269.3197842.4815738.3028428.7703481-.0169415.2887744-.1598374.5555423-.3908428.7296519-1.6068352 1.3221323-3.4907657 2.2654647-5.512 2.76-.4622656.0986158-.7945061.5043645-.8.977v2.363c0 .5522847-.4477153 1-1 1h-2c-.5522847 0-1-.4477153-1-1v-2.363c-.0054939-.4726355-.3377344-.8783842-.8-.977-2.0205283-.4948155-3.9037475-1.438134-5.51-2.76-.2310054-.1741096-.3739013-.4408775-.3908428-.7296519-.0169414-.2887743.0937809-.5704212.3028428-.7703481l1.44-1.44c.3481501-.3538042.9050317-.3936427 1.3-.093.4076788.3239199.8370118.6196084 1.285.885 2.674982 1.6666096 6.065018 1.6666096 8.74 0 .4479882-.2653916.8773212-.5610801 1.285-.885.3949683-.3006427.9518499-.2608042 1.3.093z" fill="#9e9e9e"></path></g><g id="Icons_copy" fill="#000"><path id="Shape" d="m3 51h11.993c-.1009068.6539846-.3394994 1.279097-.7 1.834-.2361964.2934649-.4964296.5667432-.778.817-1.006.964-2.526 2.42-2.517 4.559.0093473.9972093.8247816 1.7983221 1.822 1.79h20.36c.9951179.007775 1.8090099-.7909124 1.82-1.786.009-2.143-1.511-3.6-2.517-4.563-.2812554-.2502216-.541465-.5231406-.778-.816-.3604414-.5552986-.599023-1.1807231-.7-1.835h11.995c1.6568542 0 3-1.3431458 3-3v-7.3c0-.5522847-.4477153-1-1-1s-1 .4477153-1 1v7.3c0 .5522847-.4477153 1-1 1h-40c-.55228475 0-1-.4477153-1-1v-31c0-.5522847.44771525-1 1-1h26.81c.5522847 0 1-.4477153 1-1s-.4477153-1-1-1h-26.81c-1.65685425 0-3 1.3431458-3 3v31c0 1.6568542 1.34314575 3 3 3zm25.977 0c.1222193 1.0583302.4911095 2.0732063 1.077 2.963.310562.412364.6609138.7931957 1.046 1.137.9573772.7091135 1.6286836 1.7380716 1.892 2.9h-19.984c.2626506-1.1622101.9340968-2.1913823 1.892-2.9.3850187-.3424094.7353765-.7219079 1.046-1.133.5867451-.8908368.9556835-1.9072159 1.077-2.967z" fill="#000"></path><path id="Shape" d="m5 44c-.55228475 0-1 .4477153-1 1s.44771525 1 1 1h36c.5522847 0 1-.4477153 1-1s-.4477153-1-1-1z" fill="#000"></path><path id="Shape" d="m55 3h-.051c-.2453083-1.71765559-1.7139229-2.99508199-3.449-3h-1.5c-1.1045695 0-2 .8954305-2 2v4c0 1.1045695.8954305 2 2 2h1.5c1.7350771-.00491801 3.2036917-1.28234441 3.449-3h.051c1.1045695 0 2 .8954305 2 2-.0875832 3.4977423-1.3500402 6.864177-3.584 9.557-.218.267-.445.523-.678.767l-.072-.073c-.7067604-.7179303-1.839786-.7910843-2.633-.17-.3715376.2956049-.7627762.5655629-1.171.808-2.3640379 1.4740793-5.3609621 1.4740793-7.725 0-.4081227-.2422267-.7993531-.511845-1.171-.807-.7933225-.6195566-1.9249706-.5464639-2.632.17l-.046.047-.706-.744c-2.2331605-2.6923575-3.4949229-6.0581139-3.582-9.555 0-1.1045695.8954305-2 2-2h.051c.2453083 1.71765559 1.7139229 2.99508199 3.449 3h1.5c1.1045695 0 2-.8954305 2-2v-4c0-1.1045695-.8954305-2-2-2h-1.5c-1.7350771.00491801-3.2036917 1.28234441-3.449 3h-.051c-2.209139 0-4 1.790861-4 4 .0767657 3.9864436 1.5182768 7.8260023 4.084 10.878l.793.836c-.3932379.3975005-.6021206.9414659-.576 1.5.0357322.5732378.3121534 1.1046494.761 1.463 1.7285298 1.4253169 3.7593547 2.4376513 5.938 2.96v2.363c0 1.1045695.8954305 2 2 2v5c0 2.209139-1.790861 4-4 4s-4-1.790861-4-4-1.790861-4-4-4h-1.069c-.5279688-4.1906222-4.2227772-7.2488016-8.4382372-6.9842981-4.21546.2645036-7.4990167 3.760548-7.4990167 7.9842981s3.2835567 7.7197945 7.4990167 7.9842981c4.21546.2645035 7.9102684-2.7936759 8.4382372-6.9842981h1.069c1.1045695 0 2 .8954305 2 2 0 3.3137085 2.6862915 6 6 6s6-2.6862915 6-6v-5c1.1045695 0 2-.8954305 2-2l.03-2.367c2.1677728-.5268305 4.1877931-1.5385502 5.908-2.959.4488466-.3583506.7252678-.8897622.761-1.463.0228805-.5442711-.1763544-1.0744814-.552-1.469.281-.293.554-.6.814-.916 2.5412776-3.0426134 3.9663674-6.8623763 4.039-10.826 0-2.209139-1.790861-4-4-4zm-2 1.5c0 .82842712-.6715729 1.5-1.5 1.5h-1.5v-4h1.5c.8284271 0 1.5.67157288 1.5 1.5zm-16-1c0-.82842712.6715729-1.5 1.5-1.5h1.5v4h-1.5c-.8284271 0-1.5-.67157288-1.5-1.5zm-14 33.5c-3.3137085 0-6-2.6862915-6-6s2.6862915-6 6-6 6 2.6862915 6 6c-.0033074 3.3123376-2.6876624 5.9966926-6 6zm29.681-16.882c-1.4868232 1.231441-3.233673 2.1094818-5.109 2.568-.914811.2042414-1.5670085 1.01368-1.572 1.951v2.363h-2v-2.363c-.0050972-.9376197-.6577918-1.7471602-1.573-1.951-1.8803737-.4609921-3.6305711-1.3454968-5.117-2.586l1.415-1.456c.4439738.3528023.9117502.6745657 1.4.963 2.9907401 1.842223 6.7642599 1.842223 9.755 0 .4791286-.2834879.93821-.5995658 1.374-.946l1.436 1.439z" fill="#000"></path><path id="Shape" d="m23 27c-2.209139 0-4 1.790861-4 4s1.790861 4 4 4 4-1.790861 4-4-1.790861-4-4-4zm0 6c-1.1045695 0-2-.8954305-2-2s.8954305-2 2-2 2 .8954305 2 2-.8954305 2-2 2z" fill="#000"></path></g><g id="Highlights" fill="#f5f5f5" transform="translate(4 18)"><path id="Shape" d="m1 5c-.55228475 0-1-.44771525-1-1v-3c0-.55228475.44771525-1 1-1h3c.55228475 0 1 .44771525 1 1s-.44771525 1-1 1h-2v2c0 .55228475-.44771525 1-1 1z" fill="#f5f5f5"></path></g></g></g></svg>