<!-- icon666.com - MILLIONS vector ICONS FREE --><svg enable-background="new 0 0 512 512" viewBox="0 0 512 512" xmlns="http://www.w3.org/2000/svg"><g id="_x32_2_Identity_Card"><g><path d="m502.374 119.325v273.348c0 21.947-17.791 39.738-39.738 39.738h-413.274c-21.947 0-39.738-17.791-39.738-39.738v-273.348c0-21.947 17.791-39.738 39.738-39.738h413.275c21.946 0 39.737 17.791 39.737 39.738z" fill="#70efef" style="fill: rgb(156, 242, 242);"></path><path d="m502.375 119.335v273.318c0 21.935-17.803 39.738-39.738 39.738h-413.274c-21.935 0-39.738-17.803-39.738-39.738v-48.401c45.699 32.505 101.491 51.58 161.813 51.58 154.581 0 279.914-125.334 279.914-279.914 0-12.319-.795-24.478-2.305-36.321h13.591c21.935 0 39.737 17.803 39.737 39.738z" opacity=".1" fill="#000000"></path><path d="m73.205 266.882v-99.875c0-13.168 10.675-23.843 23.843-23.843h101.592c13.168 0 23.843 10.675 23.843 23.843v99.875c0 13.168-10.675 23.843-23.843 23.843h-101.593c-13.168 0-23.842-10.675-23.842-23.843z" fill="#f5f5f5"></path><path d="m171.481 200.956c0 13.083-10.554 23.637-23.637 23.637-12.996 0-23.637-10.554-23.637-23.637s10.641-23.637 23.637-23.637c13.083.001 23.637 10.554 23.637 23.637z" fill="#ffd066"></path><path d="m188.227 290.725h-80.767c0-22.329 18.142-40.384 40.384-40.384 22.415 0 40.383 18.055 40.383 40.384z" fill="#ffd066"></path><g fill="#1e2e49"><path d="m462.637 71.638h-413.274c-26.295 0-47.686 21.39-47.686 47.686v273.354c0 26.295 21.39 47.686 47.686 47.686h413.275c26.295 0 47.686-21.39 47.686-47.686v-273.355c-.001-26.295-21.391-47.685-47.687-47.685zm31.791 321.039c0 17.533-14.258 31.79-31.79 31.79h-413.275c-17.533 0-31.79-14.258-31.79-31.79v-273.354c0-17.533 14.258-31.79 31.79-31.79h413.275c17.533 0 31.79 14.258 31.79 31.79z" fill="#1e2e49" style="fill: rgb(10, 16, 26);"></path><path d="m193.11 333.613c0-4.393-3.555-7.948-7.948-7.948h-74.641c-4.393 0-7.948 3.555-7.948 7.948s3.555 7.948 7.948 7.948h74.641c4.393 0 7.948-3.555 7.948-7.948z" fill="#1e2e49" style="fill: rgb(10, 16, 26);"></path><path d="m438.794 135.218h-164.92c-4.393 0-7.948 3.555-7.948 7.948s3.555 7.948 7.948 7.948h164.92c4.393 0 7.948-3.555 7.948-7.948s-3.555-7.948-7.948-7.948z" fill="#1e2e49" style="fill: rgb(10, 16, 26);"></path><path d="m438.794 191.635h-164.92c-4.393 0-7.948 3.555-7.948 7.948s3.555 7.948 7.948 7.948h164.92c4.393 0 7.948-3.555 7.948-7.948s-3.555-7.948-7.948-7.948z" fill="#1e2e49" style="fill: rgb(10, 16, 26);"></path><path d="m438.794 248.052h-164.92c-4.393 0-7.948 3.555-7.948 7.948s3.555 7.948 7.948 7.948h164.92c4.393 0 7.948-3.555 7.948-7.948s-3.555-7.948-7.948-7.948z" fill="#1e2e49" style="fill: rgb(10, 16, 26);"></path><path d="m438.794 304.469h-164.92c-4.393 0-7.948 3.555-7.948 7.948s3.555 7.948 7.948 7.948h164.92c4.393 0 7.948-3.555 7.948-7.948s-3.555-7.948-7.948-7.948z" fill="#1e2e49" style="fill: rgb(10, 16, 26);"></path><path d="m438.794 360.886h-243.076c-4.393 0-7.948 3.555-7.948 7.948s3.555 7.948 7.948 7.948h243.077c4.393 0 7.948-3.555 7.948-7.948-.001-4.393-3.556-7.948-7.949-7.948z" fill="#1e2e49" style="fill: rgb(10, 16, 26);"></path><path d="m147.846 232.538c17.416 0 31.581-14.164 31.581-31.581s-14.164-31.589-31.581-31.589-31.589 14.172-31.589 31.589 14.173 31.581 31.589 31.581zm0-47.275c8.646 0 15.686 7.04 15.686 15.693 0 8.646-7.04 15.686-15.686 15.686-8.654 0-15.693-7.04-15.693-15.686 0-8.653 7.039-15.693 15.693-15.693z" fill="#1e2e49" style="fill: rgb(10, 16, 26);"></path><path d="m198.636 298.672c17.533 0 31.79-14.258 31.79-31.79v-99.873c0-17.533-14.258-31.79-31.79-31.79h-101.588c-17.533 0-31.79 14.258-31.79 31.79v99.873c0 17.533 14.258 31.79 31.79 31.79zm-82.247-15.895c3.555-14.056 16.307-24.487 31.457-24.487 15.142 0 27.894 10.431 31.449 24.487zm-35.236-15.896v-99.873c0-8.763 7.133-15.895 15.895-15.895h101.588c8.763 0 15.895 7.133 15.895 15.895v99.873c0 8.763-7.133 15.895-15.895 15.895h-3.171c-3.808-22.875-23.679-40.382-47.619-40.382s-43.817 17.508-47.626 40.382h-3.171c-8.763.001-15.896-7.132-15.896-15.895z" fill="#1e2e49" style="fill: rgb(10, 16, 26);"></path></g></g></g></svg>