<!-- icon666.com - MILLIONS vector ICONS FREE --><svg version="1.1" id="Layer_1" xmlns="http://www.w3.org/2000/svg" xmlns:xlink="http://www.w3.org/1999/xlink" x="0px" y="0px" viewBox="0 0 512 512" style="enable-background:new 0 0 512 512;" xml:space="preserve"><rect x="52.541" y="4" style="fill:#FFFFFF;" width="376.96" height="504"></rect><g><path style="fill:#AAC1CE;" d="M425.453,8v496H56.541V8H425.453 M433.453,0H48.541v512h384.912V0z"></path><rect x="97.029" y="400.32" style="fill:#AAC1CE;" width="288" height="8"></rect></g><polygon style="fill:#CFDCE5;" points="121.925,399.752 217.653,374.704 463.437,128.928 392.757,58.248 146.973,304.024 "></polygon><g><polyline style="fill:#415E72;" points="135.661,347.256 121.925,399.752 174.421,386.016 "></polyline><rect x="383.517" y="82.865" transform="matrix(0.7071 -0.7071 0.7071 0.7071 19.9598 313.8684)" style="fill:#415E72;" width="10.672" height="99.951"></rect></g><rect x="136.785" y="179.291" transform="matrix(0.7071 -0.7071 0.7071 0.7071 -76.4786 273.8972)" style="fill:#32BEA6;" width="311.197" height="99.951"></rect><rect x="373.719" y="66.13" transform="matrix(0.7071 -0.7071 0.7071 0.7071 36.6943 320.7997)" style="fill:#E04F5F;" width="63.735" height="99.951"></rect><g style="opacity:0.25;"><polygon style="fill:#FFFFFF;" points="121.925,399.752 429.413,94.912 392.757,58.248 147.013,303.984 "></polygon></g></svg>