<!-- icon666.com - MILLIONS vector ICONS FREE --><svg id="Layer_1" enable-background="new 0 0 152 152" viewBox="0 0 152 152" xmlns="http://www.w3.org/2000/svg" xmlns:xlink="http://www.w3.org/1999/xlink"><linearGradient id="SVGID_1_" gradientTransform="matrix(1.72 0 0 -1.72 466.24 -41.54)" gradientUnits="userSpaceOnUse" x1="-264.009" x2="-206.942" y1="-68.333" y2="-68.333"><stop offset="0" stop-color="#f3f1e8"></stop><stop offset="1" stop-color="#e3e0d0"></stop></linearGradient><linearGradient id="SVGID_2_" gradientUnits="userSpaceOnUse" x1="97.043" x2="133.851" y1="73.682" y2="110.489"><stop offset="0" stop-opacity=".25"></stop><stop offset="1" stop-opacity="0"></stop></linearGradient><g id="Icon"><path d="m129.3 31h-106.7c-6.4 0-11.6 5.2-11.6 11.6v66.8c0 6.4 5.2 11.6 11.6 11.6h106.7c6.4 0 11.6-5.2 11.6-11.6v-66.8c0-6.4-5.2-11.6-11.6-11.6z" fill="url(#SVGID_1_)" style="fill: rgb(235, 235, 235);"></path><path d="m102.4 121-26.3-26.3 47.3-36.7v63z" fill="url(#SVGID_2_)" style="fill: rgb(235, 235, 235);"></path><path d="m76.1 94.7 65-50.2v-1.8c0-6.4-5.2-11.6-11.6-11.6h-2.6l-49.3 41.8-51.1-41.9h-3.9c-6.4 0-11.6 5.2-11.6 11.6v66.8c0 6.4 5.2 11.6 11.6 11.6h4.6v-65.1z" fill="#dd4b40" style="fill: rgb(234, 111, 102);"></path><path d="m140.9 109.4v-65l-17.5 13.6v63h6c6.3 0 11.5-5.2 11.5-11.6z" fill="#a43026" style="fill: rgb(223, 99, 88);"></path></g></svg>