<!-- icon666.com - MILLIONS vector ICONS FREE --><svg enable-background="new 0 0 512 512" viewBox="0 0 512 512" xmlns="http://www.w3.org/2000/svg" xmlns:xlink="http://www.w3.org/1999/xlink"><linearGradient id="SVGID_1_" gradientUnits="userSpaceOnUse" x1="256" x2="256" y1="429.939" y2="82.061"><stop offset="0" stop-color="#cadfef"></stop><stop offset="1" stop-color="#eff4f9"></stop></linearGradient><g id="_x30_1_Website_Service"><g><path d="m476.212 290.788h-73.31c19.213 0 34.788-15.575 34.788-34.788 0-19.213-15.575-34.788-34.788-34.788h73.31c19.213 0 34.788-15.575 34.788-34.788s-15.575-34.788-34.788-34.788h-210.834c19.213 0 34.788-15.575 34.788-34.788s-15.575-34.788-34.788-34.788h-229.59c-19.213.001-34.788 15.576-34.788 34.789s15.575 34.788 34.788 34.788h73.31c-19.213 0-34.788 15.575-34.788 34.788s15.575 34.788 34.788 34.788h-73.31c-19.213-.001-34.788 15.574-34.788 34.787 0 19.212 15.575 34.788 34.788 34.788h73.31c-19.213 0-34.788 15.575-34.788 34.788s15.575 34.788 34.788 34.788h-45.296c-19.213 0-34.788 15.575-34.788 34.788s15.575 34.788 34.788 34.788h367.114c19.213 0 34.788-15.575 34.788-34.788s-15.575-34.788-34.788-34.788h45.296c19.213 0 34.788-15.575 34.788-34.788s-15.575-34.788-34.788-34.788z" fill="url(#SVGID_1_)"></path><path d="m381.056 134.018v226.024c0 10.921-8.831 19.713-19.713 19.713h-253.137c-10.881 0-19.713-8.792-19.713-19.713v-226.024z" fill="#e8f1f8"></path><path d="m381.074 134.019v226.025c0 10.917-8.84 19.72-19.72 19.72h-253.149c-10.88 0-19.72-8.802-19.72-19.72v-34.756c22.402 9.784 47.184 15.225 73.176 15.225 101.207 0 183.26-82.054 183.26-183.26 0-7.858-.491-15.64-1.473-23.233h37.626z" opacity=".12"></path><path d="m381.064 134.002v-35.841c0-10.887-8.826-19.713-19.713-19.713h-253.153c-10.887 0-19.713 8.826-19.713 19.713v35.841z" fill="#0e9c4a"></path><path d="m317.543 252.025v9.711c0 3.275-2.597 5.872-5.872 5.872h-10.953c-.734 4.46-1.92 8.808-3.5 13.042l9.542 5.476c2.766 1.581 3.726 5.194 2.145 7.961l-4.855 8.412c-1.581 2.766-5.194 3.726-8.017 2.145l-9.485-5.533c-2.879 3.5-6.041 6.662-9.542 9.541l5.533 9.541c1.581 2.767.621 6.381-2.145 7.962l-8.469 4.855c-2.767 1.638-6.324.678-7.961-2.145l-5.476-9.542c-4.178 1.581-8.525 2.766-13.042 3.5v11.009c0 3.219-2.597 5.815-5.815 5.815h-9.711c-3.218 0-5.872-2.597-5.872-5.815v-11.009c-4.46-.734-8.808-1.919-12.985-3.5l-5.533 9.542c-1.581 2.823-5.138 3.782-7.961 2.145l-8.412-4.855c-2.766-1.581-3.726-5.194-2.145-7.962l5.533-9.541c-3.501-2.879-6.662-6.041-9.542-9.541l-9.542 5.533c-2.767 1.581-6.323.621-7.961-2.145l-4.855-8.412c-1.581-2.766-.621-6.38 2.145-7.961l9.542-5.476c-1.581-4.234-2.766-8.582-3.5-13.042h-11.009c-3.218 0-5.815-2.597-5.815-5.872v-9.711c0-3.218 2.597-5.815 5.815-5.815h11.009c.734-4.516 1.919-8.864 3.5-13.042l-9.542-5.476c-2.766-1.581-3.726-5.194-2.145-7.961l4.855-8.469c1.638-2.766 5.194-3.726 7.961-2.145l9.542 5.534c2.823-3.445 6.041-6.662 9.542-9.485l-5.533-9.542c-1.581-2.823-.621-6.379 2.145-8.017l8.412-4.856c2.823-1.58 6.38-.62 7.961 2.146l5.533 9.598c4.178-1.638 8.525-2.823 12.985-3.557v-10.953c0-3.274 2.654-5.871 5.872-5.871h9.711c3.218 0 5.815 2.597 5.815 5.871v10.953c4.517.734 8.864 1.919 13.042 3.557l5.476-9.598c1.637-2.766 5.194-3.726 7.961-2.146l8.469 4.856c2.766 1.638 3.726 5.194 2.145 8.017l-5.533 9.542c3.5 2.823 6.662 6.041 9.542 9.485l9.485-5.534c2.823-1.58 6.436-.621 8.017 2.145l4.855 8.469c1.581 2.766.621 6.38-2.145 7.961l-9.542 5.476c1.581 4.178 2.766 8.525 3.5 13.042h10.953c3.275 0 5.872 2.597 5.872 5.815z" fill="#f78721"></path><path d="m317.536 252.021v9.728c0 3.243-2.578 5.862-5.862 5.862h-10.975c-.707 4.449-1.912 8.814-3.492 13.054l9.562 5.446c2.744 1.58 3.7 5.197 2.12 7.982l-4.823 8.398c-1.58 2.786-5.197 3.742-8.024 2.161l-9.479-5.529c-2.91 3.492-6.07 6.651-9.562 9.52l5.529 9.562c1.58 2.744.624 6.361-2.12 7.941l-8.481 4.864c-2.786 1.621-6.319.665-7.982-2.162l-5.446-9.521c-4.199 1.58-8.523 2.744-13.054 3.493v11.017c0 3.201-2.619 5.821-5.82 5.821h-9.728c-3.201 0-5.862-2.62-5.862-5.821v-11.017c-4.448-.749-8.814-1.912-12.971-3.493l-5.529 9.521c-1.58 2.827-5.155 3.783-7.982 2.162l-8.398-4.864c-2.785-1.58-3.741-5.197-2.162-7.941l3.076-5.321c3.492.416 7.026.624 10.601.624 49.556 0 89.716-40.16 89.716-89.716 0-3.7-.208-7.359-.707-10.975l6.361-3.701c2.827-1.579 6.444-.623 8.024 2.162l4.823 8.44c1.58 2.786.623 6.402-2.12 7.982l-9.562 5.487c1.58 4.157 2.786 8.523 3.492 13.013h10.975c3.285.001 5.862 2.62 5.862 5.821z" opacity=".12"></path><path d="m264.159 256.887c0 16.234-13.15 29.384-29.376 29.384s-29.384-13.151-29.384-29.384c0-16.225 13.159-29.376 29.384-29.376s29.376 13.151 29.376 29.376z" fill="#e8f1f8"></path><path d="m402.494 231.562v33.471l-21.42 15.829-21.458-15.829v-33.471c-12.58 7.366-21.042 21.042-21.042 36.682s8.462 29.316 21.042 36.682v107.213c0 5.931 2.38 11.258 6.271 15.149 3.891 3.853 9.256 6.271 15.187 6.271 11.824 0 21.42-9.596 21.42-21.42v-107.213c12.58-7.366 21.042-21.042 21.042-36.682s-8.462-29.316-21.042-36.682zm-21.42 187.641c-5.213 0-9.444-4.231-9.444-9.444s4.231-9.407 9.444-9.407c5.176 0 9.407 4.194 9.407 9.407s-4.231 9.444-9.407 9.444z" fill="#475da9"></path><path d="m402.494 231.562v33.471l-15.602 11.522c2.342 9.898 3.589 20.249 3.589 30.865 0 32.451-11.598 62.183-30.864 85.302v19.418c0 5.931 2.38 11.258 6.271 15.149 3.891 3.853 9.256 6.271 15.187 6.271 11.824 0 21.42-9.596 21.42-21.42v-107.214c12.58-7.366 21.042-21.042 21.042-36.682s-8.463-29.316-21.043-36.682zm-21.42 187.641c-5.213 0-9.444-4.231-9.444-9.444s4.231-9.407 9.444-9.407c5.176 0 9.407 4.194 9.407 9.407s-4.231 9.444-9.407 9.444z" opacity=".12"></path><path d="m211.277 102.447h-94.238c-2.088 0-3.778 1.692-3.778 3.778s1.69 3.778 3.778 3.778h94.238c2.088 0 3.778-1.692 3.778-3.778 0-2.087-1.69-3.778-3.778-3.778z"></path><path d="m302.977 102.447h-3.302c-2.088 0-3.778 1.692-3.778 3.778s1.69 3.778 3.778 3.778h3.302c2.088 0 3.778-1.692 3.778-3.778 0-2.087-1.69-3.778-3.778-3.778z"></path><path d="m327.743 102.447h-3.302c-2.088 0-3.778 1.692-3.778 3.778s1.69 3.778 3.778 3.778h3.302c2.088 0 3.778-1.692 3.778-3.778 0-2.087-1.69-3.778-3.778-3.778z"></path><path d="m352.512 102.447h-3.302c-2.088 0-3.778 1.692-3.778 3.778s1.69 3.778 3.778 3.778h3.302c2.088 0 3.778-1.692 3.778-3.778 0-2.087-1.69-3.778-3.778-3.778z"></path><path d="m311.672 242.433h-7.818c-.531-2.538-1.21-5.063-2.029-7.554l6.807-3.907c4.589-2.621 6.183-8.506 3.549-13.121l-4.851-8.465c-2.612-4.565-8.511-6.165-13.2-3.532l-6.785 3.959c-1.786-1.977-3.623-3.809-5.49-5.48l3.977-6.862c2.56-4.567.985-10.45-3.56-13.141l-8.474-4.859c-4.541-2.595-10.411-1.016-13.115 3.555l-3.9 6.832c-2.464-.828-4.992-1.514-7.559-2.057v-7.817c0-5.32-4.305-9.649-9.596-9.649h-9.71c-5.32 0-9.651 4.329-9.651 9.649v7.823c-2.553.544-5.065 1.23-7.515 2.055l-3.944-6.84c-2.601-4.547-8.47-6.146-13.13-3.544l-8.445 4.877c-4.575 2.704-6.12 8.465-3.494 13.165l3.947 6.807c-1.926 1.714-3.767 3.545-5.508 5.482l-6.847-3.971c-4.538-2.599-10.411-1.026-13.108 3.545l-4.859 8.472c-2.625 4.587-1.027 10.501 3.542 13.113l6.814 3.911c-.815 2.487-1.494 5.012-2.029 7.554h-7.873c-5.29 0-9.592 4.303-9.592 9.592v9.71c0 5.322 4.302 9.651 9.592 9.651h7.88c.535 2.522 1.214 5.045 2.029 7.548l-6.814 3.912c-4.562 2.607-6.186 8.508-3.542 13.13l4.873 8.445c2.678 4.525 8.548 6.102 13.108 3.492l6.829-3.959c1.741 1.944 3.571 3.772 5.515 5.517l-3.97 6.851c-2.63 4.608-1.037 10.492 3.538 13.106l8.404 4.851c4.717 2.729 10.587 1.015 13.126-3.52l3.962-6.831c2.472.812 4.984 1.49 7.508 2.025v7.878c0 5.29 4.331 9.594 9.651 9.594h9.71c5.29 0 9.596-4.303 9.596-9.594v-7.871c2.538-.535 5.065-1.214 7.552-2.029l3.918 6.829c2.76 4.745 8.701 6.139 13.108 3.527l8.467-4.853c4.593-2.627 6.183-8.511 3.538-13.136l-3.959-6.829c1.941-1.741 3.767-3.569 5.512-5.512l6.829 3.981c4.63 2.597 10.529.994 13.134-3.553l4.862-8.428c2.63-4.608 1.037-10.492-3.545-13.11l-6.821-3.916c.819-2.507 1.498-5.03 2.033-7.548h7.821c5.32 0 9.647-4.329 9.647-9.651v-9.71c.003-5.286-4.325-9.589-9.645-9.589zm2.092 19.302c0 1.195-.9 2.095-2.092 2.095h-10.953c-1.848 0-3.427 1.339-3.726 3.164-.675 4.101-1.789 8.251-3.313 12.335-.649 1.732.055 3.676 1.656 4.597l9.548 5.48c.941.539 1.288 1.85.749 2.793l-4.862 8.424c-.55.967-1.878 1.293-2.833.758l-9.485-5.532c-1.601-.935-3.641-.568-4.822.861-2.745 3.335-5.696 6.286-9.024 9.024-1.431 1.175-1.797 3.213-.871 4.813l5.523 9.524c.546.956.203 2.267-.742 2.808l-8.515 4.881c-1.002.587-2.206.179-2.763-.773l-5.475-9.542c-.922-1.608-2.889-2.304-4.612-1.655-4.014 1.518-8.157 2.63-12.311 3.307-1.83.297-3.173 1.876-3.173 3.728v11.009c0 1.123-.915 2.038-2.04 2.038h-9.71c-1.155 0-2.095-.915-2.095-2.038v-11.009c0-1.85-1.339-3.427-3.165-3.728-4.139-.681-8.264-1.795-12.256-3.306-1.728-.653-3.677.035-4.608 1.638l-5.56 9.588c-.537.96-1.753 1.322-2.778.721l-8.426-4.862c-.941-.539-1.288-1.85-.753-2.787l5.534-9.542c.926-1.599.561-3.638-.871-4.813-3.331-2.739-6.283-5.691-9.02-9.022-1.177-1.43-3.213-1.797-4.814-.869l-9.522 5.521c-.974.559-2.243.208-2.811-.754l-4.848-8.399c-.547-.957-.221-2.257.745-2.809l9.54-5.477c1.601-.92 2.306-2.865 1.656-4.597-1.516-4.073-2.63-8.221-3.309-12.335-.299-1.824-1.878-3.164-3.726-3.164h-11.011c-1.144 0-2.036-.92-2.036-2.095v-9.71c0-1.123.915-2.036 2.036-2.036h11.012c1.852 0 3.431-1.343 3.73-3.171.675-4.163 1.786-8.306 3.302-12.315.657-1.734-.044-3.689-1.653-4.612l-9.548-5.479c-.959-.549-1.282-1.853-.742-2.802l4.833-8.426c.583-.991 1.856-1.348 2.808-.799l9.544 5.534c1.612.928 3.649.553 4.818-.874 2.704-3.304 5.729-6.31 8.991-8.941 1.45-1.169 1.83-3.224.896-4.837l-5.504-9.487c-.583-1.039-.243-2.322.738-2.902l8.367-4.833c1.011-.564 2.287-.238 2.844.738l5.534 9.598c.93 1.62 2.918 2.308 4.652 1.631 3.892-1.527 8.006-2.654 12.215-3.348 1.826-.301 3.165-1.878 3.165-3.728v-10.953c0-1.155.941-2.094 2.095-2.094h9.71c1.144 0 2.04.92 2.04 2.094v10.953c0 1.852 1.343 3.431 3.173 3.728 4.228.688 8.356 1.815 12.267 3.348 1.752.677 3.734-.017 4.66-1.645l5.445-9.546c.587-.992 1.845-1.358 2.833-.793l8.423 4.829c1 .59 1.347 1.9.801 2.87l-5.534 9.54c-.933 1.612-.553 3.667.896 4.837 3.095 2.496 6.128 5.514 9.017 8.97 1.181 1.407 3.21 1.769 4.803.839l9.426-5.501c1.022-.57 2.343-.238 2.896.729l4.851 8.461c.546.959.199 2.271-.749 2.813l-9.54 5.475c-1.609.922-2.309 2.878-1.653 4.612 1.52 4.019 2.63 8.162 3.306 12.315.299 1.828 1.878 3.171 3.73 3.171h10.953c1.173 0 2.092.895 2.092 2.036v9.712z"></path><path d="m108.222 383.533h247.592v28.597c0 14.121 11.481 25.199 25.275 25.199 13.875 0 25.161-11.304 25.161-25.199v-105.104c13.034-8.476 21.043-23.139 21.043-38.79 0-16.384-8.78-31.691-22.918-39.945-2.507-1.464-5.681.343-5.681 3.263v31.569l-13.864 10.26c0-8.021.009-152.447.011-175.223 0-12.953-10.536-23.489-23.489-23.489h-253.156c-12.953 0-23.489 10.536-23.489 23.489.002 34.787.014 247.583.015 261.877 0 12.956 10.544 23.496 23.5 23.496zm247.592-7.555h-247.592c-8.791 0-15.945-7.152-15.945-15.941v-222.248h284.997v135.564l-13.905-10.237v-31.563c0-2.907-3.156-4.732-5.689-3.259-14.108 8.264-22.87 23.569-22.87 39.942 0 15.639 7.995 30.303 21.003 38.787v68.955zm23.036-92.084c1.129.832 3.057 1.055 4.486-.006l21.383-15.827c.963-.712 1.531-1.839 1.531-3.036v-26.155c8.448 7.275 13.488 18.009 13.488 29.364 0 13.711-7.345 26.516-19.169 33.419-1.162.677-1.874 1.92-1.874 3.263v107.214c0 9.729-7.899 17.644-17.605 17.644-9.714 0-17.719-7.768-17.719-17.644 0-23.013 0-81.245 0-107.213 0-1.341-.712-2.582-1.87-3.259-11.802-6.912-19.132-19.719-19.132-33.423 0-11.341 5.025-22.069 13.447-29.35v26.14c0 1.201.572 2.33 1.538 3.042zm-286.588-185.734c0-8.786 7.146-15.934 15.934-15.934h253.155c8.788 0 15.934 7.148 15.934 15.934v32.065h-285.023z"></path><path d="m234.781 223.734c-18.284 0-33.159 14.873-33.159 33.153 0 18.286 14.875 33.161 33.159 33.161 18.28 0 33.155-14.875 33.155-33.161.001-18.28-14.874-33.153-33.155-33.153zm0 58.758c-14.119 0-25.603-11.486-25.603-25.605 0-14.115 11.485-25.598 25.603-25.598 14.115 0 25.6 11.483 25.6 25.598 0 14.119-11.485 25.605-25.6 25.605z"></path><path d="m381.089 422.973c7.249 0 13.148-5.932 13.148-13.222 0-7.27-5.899-13.184-13.148-13.184-7.29 0-13.222 5.914-13.222 13.184 0 7.29 5.932 13.222 13.222 13.222zm0-18.85c3.084 0 5.593 2.525 5.593 5.628 0 3.125-2.509 5.667-5.593 5.667-3.125 0-5.667-2.542-5.667-5.667 0-3.156 2.491-5.628 5.667-5.628z"></path></g></g></svg>