<!-- icon666.com - MILLIONS vector ICONS FREE --><svg version="1.1" id="Capa_1" xmlns="http://www.w3.org/2000/svg" xmlns:xlink="http://www.w3.org/1999/xlink" x="0px" y="0px" viewBox="0 0 511.999 511.999" style="enable-background:new 0 0 511.999 511.999;" xml:space="preserve"><path style="fill:#49B5CE;" d="M305.226,109.126h-23.709c-2.541-9.456-6.327-18.582-11.252-27.125 c18.063-18.063,18.287-17.575,18.287-20.421c0-2.94,1.253-0.881-36.115-38.244c-2.011-2.011-5.272-2.011-7.285,0l-16.778,16.779 c-8.546-4.927-17.67-8.714-27.12-11.254V5.151c0-2.845-2.307-5.151-5.151-5.151h-48.937c-2.845,0-5.151,2.307-5.151,5.151v23.708 c-9.458,2.544-18.583,6.331-27.121,11.254l-16.782-16.78c-2.011-2.011-5.273-2.011-7.285,0L56.225,57.938 c-2.012,2.011-2.012,5.273,0,7.285l16.778,16.778v0.001c-4.925,8.546-8.71,17.671-11.252,27.121h-23.71 c-2.845,0-5.151,2.307-5.151,5.151v48.937c0,2.845,2.307,5.151,5.151,5.151h23.707c2.544,9.457,6.33,18.583,11.255,27.123 c-18.063,18.063-18.287,17.575-18.287,20.421c0,2.94-1.253,0.881,36.111,38.244c2.012,2.011,5.274,2.011,7.285,0.001l16.779-16.776 c8.542,4.925,17.668,8.712,27.124,11.255l0.001,23.708c0,2.845,2.306,5.151,5.151,5.151h48.937c2.845,0,5.151-2.306,5.151-5.151 v-23.71c9.45-2.54,18.575-6.326,27.122-11.254c18.062,18.063,17.573,18.286,20.419,18.286c1.366,0,2.676-0.543,3.643-1.509 c37.311-37.309,36.114-35.287,36.114-38.246c0-2.845-0.232-2.366-18.287-20.419c4.926-8.546,8.712-17.671,11.252-27.123h23.709 c2.845,0,5.151-2.307,5.151-5.151v-48.936C310.378,111.432,308.071,109.126,305.226,109.126z M241.431,138.745 c0,38.486-31.309,69.797-69.793,69.797c-38.488,0-69.801-31.311-69.801-69.797s31.313-69.796,69.801-69.796 C210.121,68.948,241.431,100.259,241.431,138.745z"></path><path style="fill:#FFA92C;" d="M473.957,298.095h-14.714c-1.75-6.51-4.355-12.792-7.744-18.671 c11.187-11.188,11.922-11.294,11.922-14.056c0-2.869,0.347-1.787-23.059-25.19c-2.011-2.012-5.272-2.011-7.285,0l-10.414,10.415 c-5.881-3.391-12.161-5.997-18.668-7.747v-14.715c0-2.845-2.307-5.151-5.151-5.151h-30.475c-2.845,0-5.151,2.307-5.151,5.151v14.714 c-6.512,1.753-12.793,4.359-18.669,7.747c-11.192-11.192-11.296-11.924-14.058-11.924c-2.869,0-1.786-0.347-25.19,23.059 c-2.012,2.012-2.012,5.273,0,7.284l10.413,10.414v0.001c-3.39,5.882-5.996,12.163-7.746,18.669h-14.714 c-2.845,0-5.151,2.307-5.151,5.151v30.475c0,2.845,2.306,5.151,5.151,5.151l14.712-0.001c1.749,6.507,4.356,12.789,7.747,18.671 h0.001c-11.192,11.191-11.923,11.294-11.923,14.057c0,1.366,0.543,2.677,1.509,3.643l21.549,21.548c2.012,2.011,5.274,2.012,7.285,0 l10.414-10.412c5.88,3.39,12.162,5.997,18.671,7.747v14.714c0,2.845,2.306,5.151,5.151,5.151h30.475 c2.845,0,5.151-2.307,5.151-5.151v-14.715l0,0c6.506-1.75,12.787-4.355,18.669-7.747c11.191,11.192,11.293,11.922,14.055,11.922 c1.366,0,2.676-0.543,3.643-1.509c23.338-23.337,23.059-22.341,23.059-25.192c0-1.366-0.543-2.676-1.509-3.643l-10.414-10.413 c3.39-5.878,5.995-12.16,7.745-18.67h14.714c2.845,0,5.151-2.306,5.151-5.151v-30.474 C479.109,300.402,476.802,298.095,473.957,298.095z M424.025,318.484c0,22.288-18.131,40.42-40.417,40.42 c-22.289,0-40.422-18.132-40.422-40.42c0-22.287,18.133-40.419,40.422-40.419C405.894,278.065,424.025,296.197,424.025,318.484z"></path><path style="fill:#EA473B;" d="M284.125,423.621h-9.995c-1.339-4.97-3.327-9.761-5.91-14.239c7.458-7.457,8.587-7.994,8.587-10.719 c0-2.786-0.366-2.5-16.213-18.345c-2.011-2.012-5.273-2.011-7.284,0l-7.077,7.076h-0.001c-4.485-2.585-9.274-4.572-14.235-5.905 l-0.001-10c0-2.845-2.307-5.151-5.151-5.151H206.05c-2.845,0-5.151,2.307-5.151,5.151v9.999c-4.969,1.337-9.759,3.324-14.237,5.907 c-7.465-7.465-8-8.587-10.721-8.587c-2.786,0-2.501,0.367-18.345,16.214c-2.011,2.011-2.012,5.272-0.001,7.284l7.075,7.076 c-2.588,4.498-4.574,9.288-5.904,14.238h-10c-2.845,0-5.151,2.307-5.151,5.151v20.794c0,2.845,2.306,5.151,5.151,5.151l9.997-0.001 c1.337,4.965,3.324,9.755,5.907,14.238l-7.075,7.076c-2.011,2.012-2.011,5.273,0.001,7.284l14.703,14.705 c2.011,2.012,5.273,2.012,7.285,0.001l7.078-7.077c4.486,2.588,9.276,4.576,14.237,5.909l0.001,9.997 c0,2.845,2.307,5.151,5.151,5.151h20.795c2.845,0,5.151-2.306,5.151-5.151v-9.999h0.001c4.96-1.333,9.749-3.32,14.235-5.907 c12.555,12.555,8.764,12.676,29.066-7.627c2.01-2.012,2.011-5.275-0.001-7.286l-7.077-7.075c2.584-4.479,4.572-9.269,5.91-14.237 h9.995c2.845,0,5.151-2.307,5.151-5.151v-20.794C289.277,425.928,286.97,423.621,284.125,423.621z M247.272,439.17 c0,16.997-13.826,30.825-30.821,30.825c-16.999,0-30.828-13.828-30.828-30.825s13.829-30.824,30.828-30.824 C233.446,408.346,247.272,422.173,247.272,439.17z"></path><path style="fill:#585A60;" d="M165.644,167.592c-4.171,0-3.798-0.585-24.92-21.858c-3.007-3.028-2.989-7.92,0.039-10.927 c3.027-3.005,7.92-2.99,10.927,0.039l14.178,14.279l31.237-28.928c3.132-2.901,8.021-2.711,10.92,0.419 c2.9,3.131,2.712,8.02-0.419,10.92C168.352,167.888,169.813,167.592,165.644,167.592z"></path><path style="fill:#4A94CC;" d="M81.826,138.581c0-67.657,52.793-122.973,119.428-127.026V5.151c0-2.845-2.307-5.151-5.151-5.151 h-48.937c-2.845,0-5.151,2.307-5.151,5.151v23.708c-9.458,2.544-18.583,6.331-27.121,11.254l-16.782-16.78 c-2.011-2.011-5.273-2.011-7.285,0L56.225,57.938c-2.012,2.011-2.012,5.273,0,7.285l16.778,16.778v0.001 c-4.925,8.546-8.71,17.671-11.252,27.121h-23.71c-2.845,0-5.151,2.307-5.151,5.151v48.937c0,2.845,2.307,5.151,5.151,5.151h23.707 c2.544,9.457,6.33,18.583,11.255,27.123c-18.063,18.063-18.287,17.575-18.287,20.421c0,2.94-1.253,0.881,36.111,38.244 c2.012,2.011,5.274,2.011,7.285,0.001l16.779-16.776c8.542,4.925,17.668,8.712,27.124,11.255l0.001,23.708 c0,2.845,2.306,5.151,5.151,5.151h48.937c2.845,0,5.151-2.306,5.151-5.151v-6.731C134.619,261.553,81.826,206.235,81.826,138.581z"></path><path style="fill:#F2961D;" d="M327.025,318.435c0-44.351,33.751-80.816,76.97-85.121v-5.183c0-2.845-2.307-5.151-5.151-5.151 h-30.475c-2.845,0-5.151,2.307-5.151,5.151v14.714c-6.512,1.753-12.793,4.359-18.669,7.747 c-11.192-11.192-11.296-11.924-14.058-11.924c-2.869,0-1.786-0.347-25.19,23.059c-2.012,2.012-2.012,5.273,0,7.284l10.413,10.414 v0.001c-3.39,5.882-5.996,12.163-7.746,18.669h-14.714c-2.845,0-5.151,2.307-5.151,5.151v30.475c0,2.845,2.306,5.151,5.151,5.151 l14.712-0.001c1.749,6.507,4.356,12.789,7.747,18.671h0.001c-11.192,11.191-11.923,11.294-11.923,14.057 c0,1.366,0.543,2.677,1.509,3.643l21.549,21.548c2.012,2.011,5.274,2.012,7.285,0l10.414-10.412 c5.88,3.39,12.162,5.997,18.671,7.747v14.714c0,2.845,2.306,5.151,5.151,5.151h30.475c2.845,0,5.151-2.307,5.151-5.151v-5.282 C360.776,399.25,327.025,362.785,327.025,318.435z"></path><path style="fill:#DB302C;" d="M178.661,439.067c0-31.8,23.043-58.201,53.337-63.462l-0.001-4.116c0-2.845-2.307-5.151-5.151-5.151 h-20.795c-2.845,0-5.151,2.307-5.151,5.151v9.999c-4.969,1.337-9.759,3.324-14.237,5.907c-7.465-7.465-8-8.587-10.721-8.587 c-2.786,0-2.501,0.367-18.345,16.214c-2.011,2.011-2.012,5.272-0.001,7.284l7.075,7.076c-2.588,4.498-4.574,9.288-5.904,14.238h-10 c-2.845,0-5.151,2.307-5.151,5.151v20.794c0,2.845,2.306,5.151,5.151,5.151l9.997-0.001c1.337,4.965,3.324,9.755,5.907,14.238 l-7.075,7.076c-2.011,2.012-2.011,5.273,0.001,7.284l14.703,14.705c2.011,2.012,5.273,2.012,7.285,0.001l7.078-7.077 c4.486,2.588,9.276,4.576,14.237,5.909l0.001,9.997c0,2.845,2.307,5.151,5.151,5.151h20.795c2.845,0,5.151-2.306,5.151-5.151v-4.32 C201.703,497.268,178.661,470.867,178.661,439.067z"></path></svg>