<!-- icon666.com - MILLIONS vector ICONS FREE --><svg version="1.1" id="Capa_1" xmlns="http://www.w3.org/2000/svg" xmlns:xlink="http://www.w3.org/1999/xlink" x="0px" y="0px" viewBox="0 0 512 512" style="enable-background:new 0 0 512 512;" xml:space="preserve"><path style="fill: rgb(97, 255, 223);" d="M448,96h-64c-11.767-0.035-21.298-9.566-21.333-21.333v-64L448,96z" fill="#87D2F3"></path><g><path style="" d="M448,96v384c-0.035,11.768-9.566,21.298-21.333,21.333H85.333C73.566,501.298,64.035,491.768,64,480 V32c0.035-11.767,9.566-21.298,21.333-21.333h277.333v64C362.702,86.434,372.233,95.965,384,96H448z" fill="#FFFFFF"></path><path style="" d="M384,320v10.667h-64v96c0,5.891-4.776,10.667-10.667,10.667H288 c-5.891,0-10.667-4.776-10.667-10.667v-96h-64v-32c0-5.891,4.776-10.667,10.667-10.667h149.333c5.891,0,10.667,4.776,10.667,10.667 V320z" fill="#FFFFFF"></path></g><g><path style="fill: rgb(97, 255, 223);" d="M288,437.333h-42.667c-5.891,0-10.667-4.776-10.667-10.667v-96h42.667v96 C277.333,432.558,282.109,437.333,288,437.333z" fill="#87D2F3"></path><path style="fill: rgb(97, 255, 223);" d="M384,192v32H277.333v64h-42.667v-64H128v-32c0-5.891,4.776-10.667,10.667-10.667h234.667 C379.224,181.333,384,186.109,384,192z" fill="#87D2F3"></path></g><g><path style="fill: rgb(36, 36, 36);" d="M117.333,64H224v21.333H117.333V64z" fill="#2170A6"></path><path style="fill: rgb(36, 36, 36);" d="M117.333,106.667h21.333V128h-21.333V106.667z" fill="#2170A6"></path><path style="fill: rgb(36, 36, 36);" d="M160,106.667h21.333V128H160V106.667z" fill="#2170A6"></path><path style="fill: rgb(36, 36, 36);" d="M455.541,88.459L370.208,3.125c-2-2.001-4.713-3.125-7.541-3.125H85.333c-17.673,0-32,14.327-32,32 l0,0v448c0,17.673,14.327,32,32,32h341.333c17.673,0,32-14.327,32-32V96C458.666,93.171,457.542,90.459,455.541,88.459z M437.333,480c0,5.891-4.776,10.667-10.667,10.667H85.333c-5.891,0-10.667-4.776-10.667-10.667V32 c0-5.891,4.776-10.667,10.667-10.667H352v53.333c0,17.673,14.327,32,32,32h21.333V85.333H384c-5.891,0-10.667-4.776-10.667-10.667 V36.416l64,64V480z" fill="#2170A6"></path><path style="fill: rgb(36, 36, 36);" d="M224,426.667c0,11.782,9.551,21.333,21.333,21.333v-85.333H224V426.667z" fill="#2170A6"></path><path style="fill: rgb(36, 36, 36);" d="M373.333,170.667H138.667c-11.782,0-21.333,9.551-21.333,21.333v32 c0,5.891,4.776,10.667,10.667,10.667h96v42.667c-11.782,0-21.333,9.551-21.333,21.333v32c0,5.891,4.776,10.667,10.667,10.667 h53.333v85.333c0,11.782,9.551,21.333,21.333,21.333h21.333c11.782,0,21.333-9.551,21.333-21.333v-85.333H384 c5.891,0,10.667-4.776,10.667-10.667v-32c0-11.782-9.551-21.333-21.333-21.333H288v-42.667h96c5.891,0,10.667-4.776,10.667-10.667 v-32C394.667,180.218,385.115,170.667,373.333,170.667z M373.333,320H320c-5.891,0-10.667,4.776-10.667,10.667v96H288v-96 c0-5.891-4.776-10.667-10.667-10.667H224v-21.333h149.333V320z M373.333,213.333h-96c-5.891,0-10.667,4.776-10.667,10.667v53.333 h-21.333V224c0-5.891-4.776-10.667-10.667-10.667h-96V192h234.667V213.333z" fill="#2170A6"></path></g></svg>