<!-- icon666.com - MILLIONS vector ICONS FREE --><svg enable-background="new 0 0 512 512" viewBox="0 0 512 512" xmlns="http://www.w3.org/2000/svg"><g id="_x31_1_Smartphone"><g><g><path d="m389.586 56.742v413.32c0 21.12-17.114 38.234-38.208 38.234h-190.73c-21.12 0-38.234-17.114-38.234-38.234v-413.32c0-17.791 14.435-32.226 32.226-32.226h202.72c17.79 0 32.226 14.436 32.226 32.226z" fill="#eef0ee"/></g><g><ellipse cx="256.004" cy="483.449" fill="#878787" rx="11.548" ry="11.548" transform="matrix(.23 -.973 .973 .23 -273.33 621.53)"/></g><g><circle cx="185.309" cy="48.679" fill="#878787" r="7.959"/></g><g><path d="m122.423 73.336v353.044c0 17.798 14.428 32.227 32.227 32.227h202.707c17.798 0 32.227-14.428 32.227-32.227v-353.044z" fill="#65c5ef"/></g><g opacity=".1"><path d="m389.586 73.336v353.056c0 14.669-9.806 27.05-23.227 30.925 1.561-3.745 2.419-7.881 2.419-12.199v-318.384c0-19.148-15.523-34.671-34.671-34.671h-211.693v-18.727z"/></g><g><g><path d="m410.393 336.399c-1.796 0-3.251 1.455-3.251 3.251v9.155c0 1.796 1.455 3.251 3.251 3.251s3.251-1.455 3.251-3.251v-9.155c0-1.796-1.455-3.251-3.251-3.251z"/></g><g><path d="m410.393 362.824c-1.796 0-3.251 1.455-3.251 3.251v49.758c0 1.796 1.455 3.251 3.251 3.251s3.251-1.455 3.251-3.251v-49.758c0-1.796-1.455-3.251-3.251-3.251z"/></g><g><path d="m102.672 42.919c-1.594 0-2.92 1.157-3.198 2.673-.743 3.626-1.119 7.376-1.119 11.151v.363c0 1.796 1.455 3.251 3.251 3.251s3.251-1.455 3.251-3.251v-.363c0-3.357.337-6.689.998-9.903.044-.216.067-.436.067-.657v-.027c.002-1.796-1.454-3.237-3.25-3.237z"/></g><g><path d="m154.64 6.96h1.405c1.796 0 3.251-1.455 3.251-3.251s-1.455-3.251-3.251-3.251h-1.405c-19.773 0-37.738 10.102-48.058 27.022-.935 1.533-.45 3.533 1.083 4.469.528.321 1.113.475 1.69.475 1.096 0 2.165-.554 2.779-1.558 9.129-14.969 25.019-23.906 42.506-23.906z"/></g><g><path d="m256.004 468.65c-8.16 0-14.799 6.64-14.799 14.799 0 8.16 6.64 14.799 14.799 14.799s14.799-6.64 14.799-14.799c0-8.16-6.639-14.799-14.799-14.799zm0 23.096c-4.575 0-8.297-3.722-8.297-8.297s3.722-8.297 8.297-8.297 8.297 3.722 8.297 8.297-3.723 8.297-8.297 8.297z"/></g><g><path d="m185.309 37.469c-6.181 0-11.21 5.029-11.21 11.21s5.029 11.21 11.21 11.21 11.21-5.029 11.21-11.21-5.029-11.21-11.21-11.21zm0 15.918c-2.596 0-4.708-2.112-4.708-4.708s2.112-4.708 4.708-4.708 4.708 2.112 4.708 4.708-2.112 4.708-4.708 4.708z"/></g><g><path d="m326.23 45.428h-110.022c-1.796 0-3.251 1.455-3.251 3.251s1.455 3.251 3.251 3.251h110.022c1.796 0 3.251-1.455 3.251-3.251s-1.455-3.251-3.251-3.251z"/></g><g><path d="m357.358 21.26h-202.708c-19.562 0-35.478 15.916-35.478 35.478v413.337c0 22.865 18.602 41.468 41.467 41.468h190.728c22.865 0 41.468-18.603 41.468-41.468 0-44.686 0-339.451 0-413.337 0-19.562-15.915-35.478-35.477-35.478zm28.975 56.186v348.934c0 15.977-12.999 28.975-28.975 28.975h-202.708c-15.977 0-28.975-12.999-28.975-28.975v-348.934zm0 392.629c0 19.28-15.686 34.966-34.966 34.966h-190.728c-19.28 0-34.965-15.686-34.965-34.966v-23.291c6.429 9.102 17.009 15.074 28.975 15.074h202.708c11.966 0 22.546-5.972 28.975-15.074v23.291zm0-399.99h-260.658v-13.348c0-15.977 12.999-28.975 28.975-28.975h202.708c15.977 0 28.975 12.999 28.975 28.975z"/></g></g><g><path d="m143.222 176.907c-1.796 0-3.251-1.455-3.251-3.251v-30.77c0-1.796 1.455-3.251 3.251-3.251s3.251 1.455 3.251 3.251v30.77c0 1.795-1.455 3.251-3.251 3.251z" fill="#fff"/></g><g><path d="m143.222 129.361c-1.796 0-3.251-1.455-3.251-3.251v-8.739c0-1.796 1.455-3.251 3.251-3.251s3.251 1.455 3.251 3.251v8.739c0 1.796-1.455 3.251-3.251 3.251z" fill="#fff"/></g></g></g></svg>