<!-- icon666.com - MILLIONS vector ICONS FREE --><svg id="Capa_1" enable-background="new 0 0 512 512" viewBox="0 0 512 512" xmlns="http://www.w3.org/2000/svg"><g><g><g><path d="m97.437 146.077h9.458v-6.484c0-14.057 11.437-25.493 25.493-25.493h112.644c14.057 0 25.492 11.437 25.492 25.493v6.484h9.458c5.39 0 10.425 1.539 14.698 4.194v-54.952c0-37.177-30.138-67.315-67.315-67.315h-77.31c-37.177 0-67.315 30.138-67.315 67.315v54.951c4.271-2.654 9.307-4.193 14.697-4.193z" fill="#ffe177"></path></g><g><g><path d="m227.364 28.004h-42.679c37.177 0 67.315 30.138 67.315 67.315v19.756c10.678 3.04 18.523 12.877 18.523 24.517v6.484h9.458c5.39 0 10.425 1.539 14.698 4.194v-54.951c0-37.177-30.138-67.315-67.315-67.315z" fill="#ffd15b"></path></g></g><path d="m207.652 409.374c-8.284 0-15-6.716-15-15v-71.064l-.819.751c-1.767 1.62-4.48 1.62-6.247 0l-4.896-4.487-49.019 43.373c-2.984 2.64-7.687.522-7.687-3.463v-56.695l-82.045 26.868c-20.545 6.728-34.439 25.898-34.439 47.517v91.821c0 8.284 6.716 15 15 15h244.011v-15.091c0-8.284 6.716-15 15-15h35.607v-44.531h-109.466z" fill="#26a6fe"></path><g><path d="m142 437h-72c-2.761 0-5-2.239-5-5v-22c0-2.761 2.239-5 5-5h72c2.761 0 5 2.239 5 5v22c0 2.761-2.239 5-5 5z" fill="#ffe177"></path></g><g><path d="m142 405h-32c2.761 0 5 2.239 5 5v22c0 2.761-2.239 5-5 5h32c2.761 0 5-2.239 5-5v-22c0-2.762-2.239-5-5-5z" fill="#ffd15b"></path></g><g><g><g><g><g><g><g><path d="m106.895 205.497v-60.419h-9.458c-15.979 0-28.932 12.953-28.932 28.932v8.711c0 15.979 12.953 28.932 28.932 28.932h9.764c-.199-2.027-.306-4.079-.306-6.156z" fill="#ffcebf"></path></g><path d="m290.852 209.532c10.59-4.298 18.061-14.68 18.061-26.812v-8.711c0-15.978-12.953-28.932-28.932-28.932h-9.458v60.419c0 1.357-.061 2.7-.148 4.036z" fill="#ffb09e"></path></g><g><g><path d="m192.652 268.128h-23.126c-7.627 0-14.938-1.375-21.704-3.882l-17.304 12.607c-4.106 2.992-6.535 7.766-6.535 12.847v69.783c0 3.984 4.703 6.103 7.687 3.463l53.975-47.758c1.749-1.548 4.378-1.548 6.127 0l.879.778v-47.838z" fill="#fff"></path><path d="m192.652 268.203h-23.126c-7.05 0-13.824-1.187-20.154-3.342v23.979c0 1.296.544 2.533 1.5 3.409l34.714 31.811c1.767 1.62 4.48 1.62 6.247 0l.819-.751z" fill="#ffcebf"></path><path d="m192.652 224.532c0-8.284 6.716-15 15-15h63.731c.084-1.336.141-2.679.141-4.036v-65.905c0-14.631-11.861-26.493-26.493-26.493h-112.644c-14.631 0-26.493 11.861-26.493 26.493v65.905c0 35.143 28.489 63.631 63.631 63.631h23.126v-44.595z" fill="#ffdfcf"></path><g><path d="m237.628 139.592v65.905c0 1.357-.057 2.7-.141 4.036h33.895c.084-1.336.141-2.679.141-4.036v-65.905c0-14.631-11.861-26.493-26.493-26.493h-33.895c14.632 0 26.493 11.862 26.493 26.493z" fill="#ffcebf"></path></g></g></g></g></g></g></g></g></g><g><path d="m489.5 209.532h-.552c-.146 1.348-.708 2.659-1.741 3.692l-13.921 13.921c-2.406 2.406-6.306 2.406-8.712 0l-8.704-8.704c-1.857-1.858-4.688-2.333-7.048-1.178-2.256 1.103-4.588 2.074-6.988 2.901-2.478.854-4.135 3.191-4.135 5.811v12.302c0 3.402-2.758 6.16-6.16 6.16h-19.688c-3.402 0-6.16-2.758-6.16-6.16v-12.302c0-2.621-1.657-4.958-4.135-5.811-2.4-.827-4.732-1.797-6.988-2.901-2.36-1.154-5.19-.679-7.048 1.178l-8.704 8.704c-2.406 2.406-6.306 2.406-8.712 0l-13.921-13.921c-1.033-1.033-1.595-2.344-1.741-3.692h-146.79c-8.284 0-15 6.716-15 15v169.841c0 8.284 6.716 15 15 15h281.848c8.284 0 15-6.716 15-15v-169.841c0-8.284-6.716-15-15-15z" fill="#7a8c98"></path><path d="m489.5 209.532h-.552c-.146 1.348-.708 2.659-1.741 3.692l-13.921 13.921c-.707.707-1.549 1.18-2.438 1.472v165.756c0 8.284-6.716 15-15 15h33.652c8.284 0 15-6.716 15-15v-169.841c0-8.284-6.716-15-15-15z" fill="#596c76"></path><path d="m410.316 287.038h-123.48c-5.523 0-10 4.477-10 10v40.944c0 5.523 4.477 10 10 10h30.282v-27.677c0-2.762 2.239-5 5-5h52.917c2.761 0 5 2.238 5 5v27.677h30.282c5.523 0 10-4.477 10-10v-40.944c-.001-5.522-4.478-10-10.001-10z" fill="#596c76"></path><path d="m410.316 287.038h-33.836c5.523 0 10 4.477 10 10v40.944c0 4.269-2.68 7.903-6.446 9.338v.662h30.282c5.523 0 10-4.477 10-10v-40.944c0-5.522-4.477-10-10-10z" fill="#465a61"></path><path d="m380.034 453.904v-133.599c0-2.762-2.239-5-5-5h-52.917c-2.761 0-5 2.238-5 5v133.599z" fill="#c5d3dd"></path><path d="m355 320.305v133.599h25.034v-133.599c0-2.762-2.239-5-5-5h-25.034c2.761 0 5 2.239 5 5z" fill="#b6c4cf"></path><g><path d="m425.641 483.995h-159.13v-15.091c0-8.284 6.716-15 15-15h134.13c8.284 0 15 6.716 15 15v10.091c0 2.762-2.238 5-5 5z" fill="#7a8c98"></path></g><g><path d="m415.641 453.904h-42.511c8.284 0 15 6.716 15 15v10.091c0 2.761-2.239 5-5 5h42.511c2.761 0 5-2.239 5-5v-10.091c0-8.284-6.716-15-15-15z" fill="#596c76"></path></g></g><g><g><path d="m504.5 171.478v-19.688c0-3.402-2.758-6.161-6.16-6.161h-12.302c-2.62 0-4.958-1.658-5.811-4.135-.827-2.4-1.797-4.732-2.901-6.988-1.154-2.36-.679-5.19 1.178-7.048l8.704-8.704c2.406-2.406 2.406-6.307 0-8.712l-13.921-13.921c-2.406-2.406-6.306-2.406-8.712 0l-8.704 8.704c-1.858 1.858-4.688 2.333-7.048 1.178-2.256-1.104-4.588-2.074-6.988-2.901-2.478-.854-4.135-3.191-4.135-5.811v-12.301c0-3.402-2.758-6.16-6.16-6.16h-19.688c-3.402 0-6.16 2.758-6.16 6.16v12.302c0 2.621-1.658 4.958-4.135 5.811-2.399.827-4.732 1.797-6.987 2.901-2.36 1.154-5.19.679-7.048-1.178l-8.704-8.704c-2.406-2.406-6.306-2.406-8.712 0l-13.921 13.921c-2.406 2.406-2.406 6.306 0 8.712l8.704 8.704c1.858 1.858 2.333 4.688 1.178 7.048-1.103 2.256-2.074 4.588-2.901 6.988-.854 2.478-3.191 4.135-5.811 4.135h-12.302c-3.402 0-6.16 2.758-6.16 6.161v19.688c0 3.402 2.758 6.16 6.16 6.16h12.302c2.621 0 4.958 1.658 5.811 4.135.827 2.399 1.797 4.732 2.901 6.988 1.154 2.36.679 5.19-1.178 7.048l-8.704 8.704c-2.406 2.406-2.406 6.306 0 8.712l13.921 13.921c2.406 2.406 6.306 2.406 8.712 0l8.704-8.704c1.858-1.857 4.688-2.333 7.048-1.178 2.256 1.103 4.588 2.074 6.988 2.901 2.478.854 4.135 3.191 4.135 5.811v12.302c0 3.402 2.758 6.161 6.16 6.161h19.688c3.402 0 6.16-2.758 6.16-6.161v-12.302c0-2.621 1.658-4.958 4.135-5.811 2.4-.827 4.732-1.797 6.988-2.901 2.36-1.154 5.19-.679 7.048 1.178l8.704 8.704c2.406 2.406 6.306 2.406 8.712 0l13.921-13.921c2.406-2.406 2.406-6.306 0-8.712l-8.704-8.704c-1.858-1.858-2.332-4.688-1.178-7.048 1.103-2.256 2.074-4.588 2.901-6.987.854-2.478 3.191-4.135 5.811-4.135h12.302c3.401-.002 6.159-2.76 6.159-6.162z" fill="#c5d3dd"></path></g><g><path d="m498.339 145.629h-12.302c-2.62 0-4.958-1.657-5.811-4.135-.827-2.4-1.797-4.732-2.901-6.988-1.154-2.36-.679-5.19 1.178-7.048l8.704-8.704c2.406-2.406 2.406-6.307 0-8.712l-13.921-13.921c-2.406-2.406-6.306-2.406-8.712 0l-8.704 8.704c-1.857 1.858-4.688 2.333-7.048 1.178-2.256-1.104-4.588-2.074-6.988-2.901-2.478-.854-4.135-3.191-4.135-5.811v-12.301c0-3.402-2.758-6.161-6.16-6.161h-19.688c-3.402 0-6.16 2.758-6.16 6.161v4.668c23.724 13.353 40.338 38.114 42.139 66.617 2.098 33.196-15.453 62.501-42.139 77.418v4.586c0 3.402 2.758 6.16 6.16 6.16h19.688c3.402 0 6.16-2.758 6.16-6.16v-12.302c0-2.621 1.658-4.958 4.135-5.811 2.4-.827 4.732-1.797 6.988-2.901 2.36-1.154 5.19-.679 7.048 1.178l8.704 8.704c2.406 2.406 6.306 2.406 8.712 0l13.921-13.921c2.406-2.406 2.406-6.306 0-8.712l-8.704-8.704c-1.858-1.858-2.333-4.688-1.178-7.048 1.104-2.256 2.074-4.588 2.901-6.987.854-2.478 3.191-4.135 5.811-4.135h12.302c3.402 0 6.161-2.758 6.161-6.16v-19.69c0-3.402-2.758-6.161-6.161-6.161z" fill="#b6c4cf"></path></g><g><path d="m448.134 159.913c1.01 15.988-12.171 29.169-28.159 28.159-13.185-.833-23.884-11.532-24.717-24.717-1.01-15.988 12.171-29.169 28.159-28.159 13.184.833 23.883 11.531 24.717 24.717z" fill="#f5f8f9"></path></g></g><g><path d="m154.5 432v-22c0-6.893-5.607-12.5-12.5-12.5h-72c-6.893 0-12.5 5.607-12.5 12.5v22c0 6.893 5.607 12.5 12.5 12.5h72c6.893 0 12.5-5.608 12.5-12.5zm-15-2.5h-67v-17h67z"></path><path d="m146.267 140.915c-4.143 0-7.5 3.357-7.5 7.5v15.528c0 4.143 3.357 7.5 7.5 7.5s7.5-3.357 7.5-7.5v-15.528c0-4.143-3.358-7.5-7.5-7.5z"></path><path d="m231.151 171.443c4.143 0 7.5-3.357 7.5-7.5v-15.528c0-4.143-3.357-7.5-7.5-7.5s-7.5 3.357-7.5 7.5v15.528c0 4.142 3.358 7.5 7.5 7.5z"></path><path d="m188.709 167.157c4.143 0 7.5-3.357 7.5-7.5s-3.357-7.5-7.5-7.5c-10.699 0-19.404 8.705-19.404 19.404 0 10.7 8.705 19.405 19.404 19.405 4.143 0 7.5-3.357 7.5-7.5s-3.357-7.5-7.5-7.5c-2.429 0-4.404-1.977-4.404-4.405s1.975-4.404 4.404-4.404z"></path><path d="m449 359.5c-4.143 0-7.5 3.357-7.5 7.5v10c0 4.143 3.357 7.5 7.5 7.5s7.5-3.357 7.5-7.5v-10c0-4.143-3.357-7.5-7.5-7.5z"></path><path d="m472 359.5c-4.143 0-7.5 3.357-7.5 7.5v10c0 4.143 3.357 7.5 7.5 7.5s7.5-3.357 7.5-7.5v-10c0-4.143-3.357-7.5-7.5-7.5z"></path><path d="m498.34 185.138c7.532 0 13.66-6.128 13.66-13.661v-19.687c0-7.532-6.128-13.66-13.66-13.66h-11.348c-.738-2.046-1.579-4.071-2.51-6.043l8.029-8.028c5.324-5.325 5.325-13.991-.001-19.319l-13.92-13.919c-2.58-2.581-6.011-4.003-9.66-4.003-3.648 0-7.079 1.421-9.66 4.001l-8.027 8.028c-1.974-.932-3.999-1.772-6.044-2.51v-11.347c0-7.533-6.128-13.661-13.66-13.661h-19.688c-7.532 0-13.66 6.128-13.66 13.661v11.347c-2.045.737-4.07 1.578-6.044 2.51l-8.026-8.026c-2.58-2.581-6.011-4.003-9.66-4.003-3.65 0-7.081 1.422-9.659 4.001l-13.924 13.923c-5.324 5.326-5.323 13.992.001 19.317l8.029 8.028c-.931 1.972-1.771 3.997-2.51 6.043h-11.347c-7.533 0-13.661 6.128-13.661 13.66v19.688c0 7.533 6.128 13.661 13.661 13.661h11.348c.737 2.047 1.579 4.072 2.508 6.042l-8.029 8.03c-.86.861-1.567 1.815-2.149 2.822h-37.882c3.52-5.603 5.566-12.221 5.566-19.312v-8.712c0-11.739-5.586-22.193-14.234-28.86v-49.83c0-41.253-33.562-74.814-74.815-74.814h-36.364c-4.143 0-7.5 3.357-7.5 7.5s3.357 7.5 7.5 7.5h36.363c32.982 0 59.815 26.833 59.815 59.814v42.975c-2.328-.468-4.734-.717-7.197-.717h-1.023c-1.047-17.809-15.861-31.978-33.927-31.978h-112.643c-18.067 0-32.881 14.169-33.928 31.978h-1.023c-2.464 0-4.87.249-7.198.717v-42.975c0-32.981 26.834-59.814 59.816-59.814h5.945c4.143 0 7.5-3.357 7.5-7.5s-3.357-7.5-7.5-7.5h-5.945c-41.254 0-74.816 33.562-74.816 74.814v49.831c-8.647 6.667-14.233 17.12-14.233 28.859v8.712c0 20.089 16.343 36.432 36.432 36.432h2.287c3.877 19.856 16.046 36.772 32.732 47.011l-6.354 4.629c-6.022 4.389-9.618 11.457-9.618 18.909v7.652l-76.878 25.176c-23.691 7.758-39.607 29.718-39.607 54.644v91.821c0 12.406 10.094 22.5 22.5 22.5h48.5c4.143 0 7.5-3.357 7.5-7.5s-3.357-7.5-7.5-7.5h-48.5c-4.136 0-7.5-3.364-7.5-7.5v-91.821c0-18.424 11.765-34.655 29.273-40.39l72.21-23.648v46.347c0 4.833 2.737 9.068 7.145 11.054 1.628.733 3.334 1.093 5.022 1.093 2.881-.001 5.707-1.047 7.989-3.066l43.966-38.902c1.358 1.222 2.913 2.078 4.547 2.586v62.126c0 12.406 10.094 22.5 22.5 22.5h101.965v29.531h-28.106c-12.406 0-22.5 10.094-22.5 22.5v7.591h-153.011c-4.143 0-7.5 3.357-7.5 7.5s3.357 7.5 7.5 7.5l319.642-.001c6.893 0 12.5-5.607 12.5-12.5v-10.09c0-12.406-10.094-22.5-22.5-22.5h-28.107v-29.531h101.965c12.406 0 22.5-10.094 22.5-22.5v-169.841c0-10.494-7.222-19.331-16.957-21.807-.637-1.268-1.475-2.46-2.532-3.517l-8.028-8.028c.929-1.969 1.77-3.994 2.509-6.042h11.348zm-399.945 19.014h-.958c-11.817 0-21.432-9.614-21.432-21.432v-8.712c0-11.817 9.614-21.432 21.432-21.432h.958zm180.628-51.575h.958c11.817 0 21.432 9.614 21.432 21.432v8.712c0 8.51-4.998 15.855-12.202 19.312h-10.188zm-147.54 200.52v-63.396c0-2.674 1.29-5.211 3.451-6.786l6.938-5.054v10.98c0 3.39 1.434 6.647 3.933 8.938l23.677 21.698zm53.669-39.607-28.28-25.916v-12.073c4.107.741 8.336 1.128 12.654 1.128h15.626zm0-88.957v3.978h-2.532c-9.631 0-17.467-7.836-17.467-17.467 0-4.143-3.357-7.5-7.5-7.5s-7.5 3.357-7.5 7.5c0 17.902 14.564 32.467 32.467 32.467h2.532v18.118h-15.626c-30.951 0-56.132-25.181-56.132-56.132v-65.904c0-10.473 8.521-18.993 18.993-18.993h112.644c10.473 0 18.992 8.521 18.992 18.993v62.44h-56.371c-12.406 0-22.5 10.093-22.5 22.5zm230.49 236.872c4.136 0 7.5 3.364 7.5 7.5v7.59h-149.131v-7.59c0-4.136 3.364-7.5 7.5-7.5zm-40.608-153.6h-52.917c-6.893 0-12.5 5.607-12.5 12.5v20.177h-22.781c-1.379 0-2.5-1.121-2.5-2.5v-40.943c0-1.379 1.121-2.5 2.5-2.5h123.48c1.379 0 2.5 1.121 2.5 2.5v40.943c0 1.379-1.121 2.5-2.5 2.5h-22.782v-20.177c0-6.892-5.607-12.5-12.5-12.5zm117.479-89.278c.192-.192.361-.397.539-.597 2.348 1.268 3.948 3.752 3.948 6.603v169.841c0 4.136-3.364 7.5-7.5 7.5h-101.966v-46.392h22.782c9.649 0 17.5-7.851 17.5-17.5v-40.943c0-9.649-7.851-17.5-17.5-17.5h-123.48c-9.649 0-17.5 7.851-17.5 17.5v40.943c0 9.649 7.851 17.5 17.5 17.5h22.781v4.518c0 4.143 3.357 7.5 7.5 7.5s7.5-3.357 7.5-7.5v-37.194h47.917v123.6h-47.917v-51.406c0-4.143-3.357-7.5-7.5-7.5s-7.5 3.357-7.5 7.5v6.874h-101.965c-4.136 0-7.5-3.364-7.5-7.5v-169.841c0-4.136 3.364-7.5 7.5-7.5h141.954c.388.519.802 1.025 1.274 1.496l13.921 13.921c2.58 2.579 6.011 4 9.66 4 3.648 0 7.079-1.421 9.659-4l8.027-8.028c1.974.931 3.999 1.771 6.044 2.509v11.348c0 7.532 6.128 13.66 13.66 13.66h19.688c7.532 0 13.66-6.128 13.66-13.66v-11.349c2.047-.738 4.072-1.579 6.044-2.509l8.029 8.029c5.327 5.325 13.993 5.324 19.316-.001zm-19.377-39.198c-.719 2.087-1.576 4.15-2.548 6.137-2.561 5.235-1.511 11.523 2.612 15.646l7.758 7.757-12.027 12.026-7.757-7.757c-4.123-4.121-10.409-5.174-15.646-2.611-1.986.972-4.052 1.828-6.136 2.547-5.498 1.895-9.192 7.079-9.192 12.902v10.962h-17.008v-10.962c0-5.823-3.694-11.008-9.191-12.902-2.082-.718-4.147-1.575-6.137-2.547-5.235-2.56-11.522-1.512-15.646 2.611l-7.757 7.757-12.027-12.026 7.756-7.756c4.125-4.122 5.176-10.411 2.613-15.649-.972-1.985-1.828-4.049-2.546-6.134-1.894-5.497-7.079-9.191-12.902-9.191h-10.963v-17.009h10.963c5.823 0 11.008-3.694 12.901-9.191.718-2.083 1.575-4.147 2.548-6.136 2.561-5.235 1.511-11.523-2.612-15.647l-7.757-7.756 12.026-12.026 7.757 7.757c4.124 4.123 10.411 5.172 15.647 2.611 1.989-.974 4.053-1.83 6.135-2.547 5.498-1.895 9.192-7.079 9.192-12.902v-10.964h17.008v10.963c0 5.823 3.694 11.008 9.194 12.903 2.08.716 4.144 1.572 6.134 2.546 5.234 2.56 11.522 1.511 15.646-2.611l7.757-7.757 12.026 12.026-7.757 7.756c-4.123 4.124-5.173 10.412-2.612 15.647.973 1.988 1.83 4.053 2.548 6.135 1.894 5.498 7.079 9.192 12.902 9.192h10.962v17.009h-10.962c-5.823 0-11.009 3.695-12.902 9.191z"></path><path d="m423.89 127.71c-9.773-.604-19.329 2.985-26.23 9.887-6.9 6.9-10.504 16.462-9.887 26.23 1.075 17.014 14.716 30.654 31.729 31.729.72.045 1.438.067 2.155.067 9.008 0 17.683-3.563 24.074-9.955 6.9-6.9 10.505-16.461 9.888-26.229-1.075-17.013-14.716-30.653-31.729-31.729zm11.235 47.353c-3.912 3.913-9.117 5.886-14.678 5.523-9.338-.59-17.114-8.366-17.704-17.705-.352-5.553 1.61-10.765 5.522-14.678 3.614-3.614 8.336-5.562 13.412-5.562.419 0 .842.013 1.266.04 9.338.59 17.115 8.366 17.705 17.704.351 5.553-1.61 10.766-5.523 14.678z"></path></g></g></svg>