<!-- icon666.com - MILLIONS vector ICONS FREE --><svg id="Layer_1" enable-background="new 0 0 73 73" viewBox="0 0 73 73" xmlns="http://www.w3.org/2000/svg"><g id="_x34_1"><g><g><path d="m64.6362839 43.719738h-32.6627865c-2.1338711 0-3.8637142-1.7298431-3.8637142-3.8637123v-31.308176c0-2.1338706 1.7298431-3.8637142 3.8637142-3.8637142h32.6627884c2.133873 0 3.8637161 1.7298436 3.8637161 3.8637142v31.308176c-.0000019 2.1338692-1.729845 3.8637123-3.863718 3.8637123z" fill="#f2f6ff"></path><path d="m68.4999924 10.0191202v-2.7017474c0-1.4542847-1.1789474-2.6332369-2.6332321-2.6332369h-35.1237164c-1.4543266 0-2.6332779 1.1789522-2.6332779 2.6332369v2.7017474z" fill="#454d6a"></path><g fill="#fff"><path d="m31.0091743 7.6394691c0 .3779716-.3036175.6815891-.6753864.6815891-.3779697 0-.6815872-.3036175-.6815872-.6815891 0-.3717685.3036175-.675386.6815872-.675386.371769.0000001.6753864.3036176.6753864.675386z"></path><path d="m32.9090271 7.6394691c0 .3779716-.3036156.6815891-.6753845.6815891-.3779736 0-.681591-.3036175-.681591-.6815891 0-.3717685.3036175-.675386.681591-.675386.3717689.0000001.6753845.3036176.6753845.675386z"></path><path d="m34.8088799 7.6394691c0 .3779716-.3036194.6815891-.6753845.6815891-.3779716 0-.681591-.3036175-.681591-.6815891 0-.3717685.3036194-.675386.681591-.675386.3717651.0000001.6753845.3036176.6753845.675386z"></path></g></g><g><g><g><path d="m59.7433662 23.8557873c-.0155602-.5020714-.3814011-.9342098-.8834724-1.0275173l-.9924316-.1945953c-.3424911-.0701237-.6421738-.291893-.78228-.6149521-.0428047-.1128807-.1011925-.2295628-.1556625-.3384514-.1517868-.3230591-.1323318-.6966686.0467033-1.0081348l.5059433-.8640881c.2529602-.4397411.1712456-1.0001526-.1984901-1.3425961l-2.2728882-2.1211662c-.3658409-.3462439-.9301491-.3891916-1.3504829-.1050892l-.8328743.5606022c-.291893.1945953-.6655006.2451439-.9924316.1166801-.1167526-.042757-.2374001-.0934963-.3580475-.1362534-.3347244-.1166821-.5837898-.4007835-.6771889-.7394257l-.2529831-.9691772c-.1284409-.4902897-.5837898-.8249407-1.0936279-.8095484l-3.1057358.1090803c-.5020752.015583-.9301758.3813992-1.0235748.87568l-.1945953.9963522c-.0700531.3464336-.2996864.642128-.6227226.7821827-.1206474.0507393-.2335052.1012878-.3502579.1556377-.3152428.1518383-.6888733.1284637-.9963264-.0465584l-.8640175-.5020714c-.4397888-.2529354-.9963264-.1674194-1.3427124.1983967l-2.1210747 2.2730045c-.346386.365818-.3891907.9300308-.1050873 1.3503876l.5643311.8369122c.1984901.2879028.2451935.6615124.1167526.9883709-.0467033.1168709-.0972977.2413445-.1401024.3620167-.1089859.33465-.3930893.5799866-.7355766.6732922l-.9651871.2529373c-.4942818.1284637-.8289795.5877762-.8095245 1.0936489l.1089592 3.1057377c.015583.5058727.381424.9380112.8834724 1.0313187l.9807701.1868038c.3463631.0701237.6460457.291893.7822762.6227436.0505753.1128807.1050682.2297516.163456.350235.1517906.3152676.128437.6888752-.054493.9963512l-.5020485.8640881c-.2529831.4397392-.1673508 1.0001526.1984901 1.3427849l2.2767601 2.1209793c.3697357.3464317.930172.3891907 1.3543777.1050873l.8328743-.5604134c.291893-.1945953.6655235-.2451439.9885368-.1168709.1206474.0507393.2374229.0934982.361969.1362572.3385925.1168709.5798912.4009705.6732941.7394257l.2529564.9691772c.1245461.4902878.5837898.8251305 1.089756.8095474l3.1096344-.1090813c.5098381-.0193825.9340439-.3814011 1.0274696-.8832817l.1945953-.9885597c.0700493-.3426323.291893-.6423187.6149025-.7783813.1206512-.0545425.2374268-.1052818.3502846-.1596298.3152428-.1596298.6966438-.1362572 1.0002213.0467491l.8639946.5020714c.4436836.2529335 1.0002251.1672287 1.3427124-.1985855l2.1210976-2.2768059c.346386-.3736115.3930855-.9300308.108963-1.3543797l-.5682068-.8405228c-.1945953-.2880936-.2451897-.6539097-.1128807-.9809589.0467033-.1204834.0895309-.2373543.1245461-.350235.1167526-.3384514.4008789-.5797958.7433662-.6732922l.9729805-.2607288c.4903831-.1284637.8250809-.5875874.8094978-1.0858574zm-11.438301 7.217371c-2.9064445 0-5.2596588-2.3570747-5.2596588-5.2598 0-2.9025383 2.3532143-5.259613 5.2596588-5.259613 2.9026794 0 5.2596626 2.3570747 5.2596626 5.259613 0 2.9027252-2.3569832 5.2598-5.2596626 5.2598z" fill="#8b2af7"></path></g></g></g><path d="m48.3050652 31.0731583c-2.9064445 0-5.2596588-2.3570747-5.2596588-5.2598 0-2.9025383 2.3532143-5.259613 5.2596588-5.259613 2.9026794 0 5.2596626 2.3570747 5.2596626 5.259613 0 2.9027252-2.3569832 5.2598-5.2596626 5.2598z" fill="#fff"></path></g><g><g><g><g><g><g><path d="m45.980072 53.0568466s-5.944664.9302979-6.2058792 1.0704536c-.2612572.1401558-13.9536991-4.4855919-13.9919262-4.6448822-.0318489-.1592865 0-11.5388565 0-11.5388565l3.7783222-6.2250118h1.8954506c1.8347702 0 3.4245949 1.2714329 3.8279381 3.0613194l1.8778191 10.4950294z" fill="#fdcbc0"></path><path d="m37.4080048 45.4945068h-11.6408253c.0063782-3.3387604.0127544-7.5503426.0127544-7.5503426l3.7783222-6.2250118h1.8987083c1.8350086 0 3.4215145 1.267931 3.8293018 3.0583706l1.8732376 10.5002937z" fill="#fdce4b"></path><g><g><g><path d="m11.7448206 31.7107468h17.5605392c1.9157619 0 3.4687958 1.5530319 3.4687958 3.4687958v30.4712677c0 .9537888-22.7729797.9537888-22.7729797 0l-.1895418-31.9940529c-.0070916-1.0726662.8604993-1.9460106 1.9331865-1.9460106z" fill="#fdce4b"></path></g></g></g><path d="m32.432 37.039h.344v8.455h-.344z" fill="#f4bc24"></path><g><ellipse cx="28.11" cy="17.867" fill="#251a38" rx="1.937" ry="3.181"></ellipse><g><path d="m14.0025415 20.5229111c0 2.0356541 1.648016 4.7978935 3.6326303 4.9811478.0701103.0065517.1402187.0065517.2103729.0065517 1.7040863 0 3.0855732-1.9374943 3.5273781-3.7964058.01404-.0589275.0280781-.1113033.0350552-.1701908.0771732-.3469334.1122284-.6938248.1122284-1.0211029 0-.497467-.0911694-.9752789-.2664871-1.4073067-.3786716-.9883823-1.1571178-1.7738152-2.1318531-2.1534691-.4207897-.1701889-.8836117-.261837-1.3604717-.261837-.0350971 0-.0631332 0-.0981884.0065517-.8274956.0131035-1.5848827.3076611-2.1949863.7920246-.0420742.0261688-.0841494.0654392-.1262236.1047115-.1682987.1374702-.3296204.3011093-.47686.4713001-.5329743.6610662-.8625947 1.5120183-.8625947 2.4480249z" fill="#251a38"></path><path d="m18.129 24.13h6.206v7.577h-6.206z" fill="#fdcbc0"></path><path d="m24.3368568 31.7107468-2.1537742.2501812-4.0553513-.2501812z" fill="#fdcbc0"></path><path d="m24.3341675 22.8514175v5.7857056s-2.7435417 1.4184475-6.2055912.8865299v-6.6722355z" fill="#f1b2a9"></path><path d="m18.1333141 19.9793472v3.734375c0 2.9960861 2.4316597 5.4278355 5.4278336 5.4278355 2.9961319 0 5.4278355-2.4317493 5.4278355-5.4278355v-3.734375c0-1.4980431-.6079369-2.8587132-1.5921745-3.8356171-.9770355-.9843245-2.337616-1.5922174-3.8356609-1.5922174-2.996174 0-5.4278337 2.4316588-5.4278337 5.4278345z" fill="#fdcbc0"></path><g fill="#251a38"><path d="m29.2033787 19.5340958c-3.9212341.5051174-7.5633812.5849495-10.9130535-.2458248-.4452839-.1064434-.8906097-.2326832-1.322588-.3722267-.724453-.239254-1.4289494-.5184231-2.1201401-.8573856.239253-5.9283619 4.5792027-7.3174772 8.4406853-7.2842131 2.7913742.0266104 5.3302288.7975111 5.9017925 1.1364746.0864029.0532217.1728077.1063614.2592106.1728077 3.5158672 2.3394765 4.0275974 7.4503679-.2459068 7.4503679z"></path><ellipse cx="23.299" cy="21.853" rx=".507" ry=".748"></ellipse><ellipse cx="26.903" cy="21.853" rx=".507" ry=".748"></ellipse></g><path d="m23.1601982 24.8384228c-.0012798.0299263-.0089092.0580177-.0089092.0882416 0 1.1371059.9217911 2.058897 2.0588551 2.058897 1.1371059 0 2.058897-.9217911 2.058897-2.058897 0-.0302238-.0076313-.0583153-.0089092-.0882416z" fill="#fff"></path></g><path d="m16.2235355 20.8860874c-.0267239 1.0226727.8079739 1.8740902 1.8643494 1.9016933s1.1531487-3.6758213.0967731-3.7034245-1.9343986.7790586-1.9611225 1.8017312z" fill="#fdcbc0"></path><path d="m20.0391674 17.9757652s-.1521912 3.4818974-.9875813 4.1415043c-.4300499.3395576-.9939594-.4396782-.9939594-.9876213v-3.153883c0-.5543213.4460144-.9876194.9939594-.9876194.5479432 0 .9875813.4332981.9875813.9876194z" fill="#251a38"></path></g><path d="m24.3341274 30.6632214 1.040741 1.055046-1.7092705 2.287016-1.4825153-2.0443554z" fill="#f0ecfd"></path><path d="m22.1830826 31.960928-1.0268135 2.1877193-3.9601059-2.4412498.9315681-1.0863781z" fill="#f0ecfd"></path><g><path d="m50.6544838 52.961525v.8608093c0 .6065865-.4917336 1.09832-1.09832 1.09832h-22.4618549c-.5409985 0-.9795647-.4385643-.9795647-.9795647 0-.5410004.4385662-.9795647.9795647-.9795647h23.5601749z" fill="#70739c"></path><path d="m53.5361443 39.7323723-2.8797646 13.2265015h-18.4349823l2.9976616-13.709259c.1122437-.4883766.5501175-.8307991 1.044117-.8307991h16.228817c.6904945-.0000001 1.201313.6455764 1.0441513 1.3135566z" fill="#9ea1cc"></path><path d="m45.7180443 46.9319725c-.1780472.9176483-1.0887947 1.6571617-2.0337715 1.6571617-.9381256 0-1.561245-.7395134-1.3831978-1.6571617.1848564-.9107056 1.0887527-1.657074 2.0337296-1.657074.9381255 0 1.5612869.7463684 1.3832397 1.657074z" fill="#70739c"></path></g></g></g><path d="m24.3876381 46.9320145-10.7647686 1.1034927s-.1849785-2.6179504-.325633-4.8778305l-8.3967628-.5952492v8.8881187c.4801369 3.653614 4.1214547 6.0053978 7.6491342 4.9402313l13.565136-4.6086845z" fill="#fdcbc0"></path><path d="m14.0024557 44.8604889h-9.5024557v-3.6898308c0-5.2480545 4.2543898-9.5024452 9.5024462-9.5024452h.0000095z" fill="#fdce4b"></path><g><path d="m13.8432446 38.4529839v6.2483444h-.2899551c-.0880442 0-.1592884.0715561-.1592884.1592903s.0712442.1592903.1592884.1592903h.4492435c.0880442 0 .1592884-.0715561.1592884-.1592903v-6.4076347z" fill="#f4bc24"></path></g><path d="m30.8442993 47.5746384c.5658321.619751.6806946 3.2870636.6806946 3.2870636.0349827.4134216-.2623348.7808609-.6739578.8329048h-.0000019c-.198349.0250778-.4784622-.1498947-.7197762-.37994-.4275627-.4075966-1.0588188-.5195618-1.6191559-.3325768l-2.3973579.8000031-1.7301788-4.8476906 2.2823696-1.7303009c.2669086-.2023468.6388092-.1911201.8930283.0269547h.0000019c.3758526.3224144.3155632.9206238-.1170673 1.1615601l-.1720428.0958099c-.0000002-.0000001 2.9438818.3966559 3.5734442 1.0862121z" fill="#fdcbc0"></path></g><path d="m44.8480301 55.5698738h-4.1656113c-.2793465 0-.5057983-.2264557-.5057983-.5057983v-.0000038c0-1.1051216.8958778-2.0010033 2.0009995-2.0010033h1.1752052c1.1051254 0 2.0010033.8958817 2.0010033 2.0010033v.0000038c-.0000001.2793426-.2264558.5057983-.5057984.5057983z" fill="#fdcbc0"></path></g></g><g><path d="m68.3747406 65.4472198v2.0843964c0 .4386749-.3456192.7842484-.7842484.7842484h-62.2350564c-.4386315 0-.7842474-.3455734-.7842474-.7842484v-2.0843964c0-.4253616.3456159-.7842407.7842474-.7842407h62.2350578c.4386278 0 .784247.3588791.784247.7842407z" fill="#70739c"></path></g></g><g><path d="m29.4492855 12.0837278c-4.0409031-.3123522-9.3179493-.1262388-10.2085571 1.6349401-.8042068 1.5951042-.9637089 3.8947468-.9504032 5.569603.0066528 1.2494068.1129742 2.1467094.1129742 2.1666679l-1.3159351.159502c-.0133057-.0997906-.1395855-1.2163067-.119627-2.6983967.0066528-1.7745667.2259483-4.0940838 1.083334-5.7954702.7244148-1.4356022 2.8711243-2.0869169 5.2372112-2.3461285 2.7913742.0266104 5.3302288.7975111 5.9017925 1.1364746.0864028.0532218.1728076.1063615.2592105.1728078z" fill="#eeebfc"></path></g><g><path d="m22.3889523 26.7564869-3.596674-.4037056c-.5653152-.0642548-.9914131-.5406532-.9914131-1.1085663v-1.9938602h.6646214v1.9938602c0 .229763.1723194.4218788.4011078.4478397l3.5963497.4037056z" fill="#70739c"></path></g><circle cx="18.129" cy="21.552" fill="#ff2d84" r="2.65"></circle><circle cx="17.592" cy="21.552" fill="#fd62a1" r="2.114"></circle><circle cx="17.592" cy="21.552" fill="#ff2d84" r="1.234"></circle><path d="m22.452898 27.154789-.4443417-.0531197c-.408947-.0488853-.7008324-.4200325-.6519451-.8289795.0488853-.408947.4200325-.7008343.8289795-.651947l.4443436.0531178c.4089451.0488873.7008305.4200344.6519451.8289814-.0488872.4089469-.4200344.7008342-.8289814.651947z" fill="#70739c"></path></g></svg>