<!-- icon666.com - MILLIONS vector ICONS FREE --><svg version="1.1" id="Capa_1" xmlns="http://www.w3.org/2000/svg" xmlns:xlink="http://www.w3.org/1999/xlink" x="0px" y="0px" viewBox="0 0 512 512" style="enable-background:new 0 0 512 512;" xml:space="preserve"><rect x="279.416" y="281.817" style="" width="89.005" height="53.173" fill="#CCCCCC"></rect><rect x="279.416" y="281.817" style="" width="30.002" height="53.173" fill="#BCBBB8"></rect><path style="fill: rgb(255, 255, 255);" d="M482.13,7.501c-39.288,0-277.139,0-316.413,0c-12.342,0-22.288,10.01-22.288,22.289 c0,6.677,0,193.143,0,215.807h360.99c0-235.373,1.153-219.356-2.69-226.43C497.954,12.218,490.593,7.501,482.13,7.501z" fill="#ffffff"></path><path style="fill: rgb(248, 252, 252);" d="M170.806,29.79c0-12.265,9.934-22.289,22.288-22.289c-16.949,0-10.431,0-27.378,0 c-12.342,0-22.288,10.01-22.288,22.289c0,6.677,0,193.143,0,215.807h27.378C170.806,223.208,170.806,36.501,170.806,29.79z" fill="#ffffff"></path><path style="" d="M143.428,240.872c0.793,18.674-2.261,26.175,4.064,35.145c9.62,13.638,16.017,8.38,84.345,9.464 h184.171c68.216-1.082,74.722,4.18,84.345-9.464c6.316-8.961,3.278-16.419,4.064-35.145 C494,240.872,154.383,240.872,143.428,240.872z" fill="#EFEFEF"></path><path style="" d="M476.123,39.858c-1.288-2.368-3.8-3.98-6.68-3.98c-14.222,0-277.465,0-291.039,0 c-2.88,0-5.391,1.611-6.679,3.98c-0.586,1.077-0.919,2.31-0.919,3.619c0,14.424,0,142.58,0,162.419c0,4.189,3.409,7.599,7.598,7.599 c15.025,0,278.698,0,291.039,0c4.189,0,7.598-3.409,7.598-7.599C477.041,32.073,477.44,42.279,476.123,39.858z" fill="#70B5E8"></path><path style="" d="M200.808,205.896c0.346-171.446-0.831-162.822,0.919-166.038c1.288-2.368,3.799-3.98,6.679-3.98 c-3.624,0-27.037,0-30.002,0c-2.88,0-5.391,1.611-6.679,3.98c-0.586,1.077-0.919,2.31-0.919,3.619c0,14.424,0,142.58,0,162.419 c0,4.189,3.409,7.599,7.598,7.599h30.002C204.217,213.495,200.808,210.085,200.808,205.896z" fill="#52A5D8"></path><path style="" d="M373.274,358.36h-98.701c-7.56,0-13.689-6.128-13.689-13.689l0,0c0-7.56,6.128-13.689,13.689-13.689 h98.701c7.559,0,13.689,6.128,13.689,13.689l0,0C386.963,352.232,380.834,358.36,373.274,358.36z" fill="#EFEFEF"></path><path style="" d="M298.22,344.671c0-7.56,6.128-13.689,13.689-13.689h-37.335c-7.56,0-13.689,6.128-13.689,13.689 c0,7.56,6.128,13.689,13.689,13.689h37.335C304.349,358.36,298.22,352.232,298.22,344.671z" fill="#DDDDDD"></path><path style="fill: rgb(255, 255, 255);" d="M170.806,42.477v47.156h306.236V42.477c0-4.189-3.409-7.598-7.598-7.598H178.404 C174.215,34.878,170.806,38.287,170.806,42.477z" fill="#ffffff"></path><path style="fill: rgb(255, 255, 255);" d="M208.406,34.878h-30.002c-4.189,0-7.598,3.409-7.598,7.598v47.156h30.002V42.477 C200.808,38.287,204.217,34.878,208.406,34.878z" fill="#ffffff"></path><path style="" d="M121.89,321.626v60.88l68.396,2.148c0.001-0.009,0.002-0.018,0.003-0.027l0.077-0.047 c0-10.715,0-52.635,0-63.238C169.176,330.987,144.094,331.956,121.89,321.626z" fill="#EAB883"></path><path style="" d="M161.559,383.751c-3.767-11.77-9.245-20.626-9.245-35.715v-19.115 c-10.314-0.392-20.648-2.747-30.424-7.295c0,12.072,0,45.217,0,60.88C152.35,383.462,132.68,382.844,161.559,383.751z" fill="#DDA36F"></path><path style="" d="M185.895,368.938l-0.927,0.663c-17.207,12.309-40.374,12.172-57.434-0.339l-0.441-0.324v66.809 h58.803L185.895,368.938L185.895,368.938z" fill="#EFEFEF"></path><path style="" d="M159.694,378.63c-18.949,1.242-32.424-9.606-32.602-9.693v66.809h53.398L159.694,378.63z" fill="#DDDDDD"></path><path style="" d="M304.568,478.594l-11.74-72.965c-3.646-18.263-17.065-25.69-24.456-28.447 c-0.089-0.026-5.062-1.493-4.972-1.467l-31.111-7.725l-3.281-1.995l-63.746,55.373c-3.196,8.14-14.725,8.113-17.884-0.04l0.016,0.04 l-62.179-57.233l-4.847,2.86l-31.512,8.721l0,0c-0.989,0.447-24.39,4.678-29.43,29.915L7.71,478.444 C5.511,492.111,16.066,504.5,29.909,504.5h252.588C296.26,504.499,306.754,492.182,304.568,478.594z" fill="#70B5E8"></path><path style="" d="M37.468,478.443l11.716-82.815c2.61-13.071,10.144-20.498,16.94-24.691l-17.268,4.778l0,0 c-0.989,0.447-24.39,4.678-29.429,29.915L7.711,478.444C5.512,492.111,16.067,504.5,29.91,504.5h29.757 C45.824,504.499,35.269,492.11,37.468,478.443z" fill="#52A5D8"></path><path style="" d="M221.567,118.197c-2.795-0.611-5.318-2.116-7.108-4.347c-27.828-34.683-101.831-31.808-140.31,6.67 c-35.455,35.456-15.843,92.027-15.843,92.027h196.063C271.503,140.625,234.718,121.074,221.567,118.197z" fill="#93482B"></path><path style="" d="M120.527,120.52c14.826-14.826,34.927-24.36,55.627-28.503c-33.318-7.342-75.86,2.358-102.005,28.503 c-35.455,35.456-15.843,92.027-15.843,92.027h46.378C104.684,212.547,85.072,155.976,120.527,120.52z" fill="#843D26"></path><g><path style="" d="M58.482,207.578l-0.029-0.031c-12.711,8.56-12.735,24.809,0,33.385l0.03-0.031 c4.371,2.935,9.918,4.694,15.957,4.694c0-14.656,0-27.754,0-42.713l0,0C68.4,202.884,62.854,204.643,58.482,207.578z" fill="#EAB883"></path><path style="" d="M254.231,207.578l0.029-0.031c12.711,8.56,12.735,24.809,0,33.385l-0.03-0.031 c-4.371,2.935-9.918,4.694-15.957,4.694c0-14.656,0-27.754,0-42.713C238.645,202.94,246.635,202.48,254.231,207.578z" fill="#EAB883"></path></g><g><path style="" d="M58.452,222.932c-3.051-2.054-5.521-4.684-7.184-7.692c-5.075,9.182-1.652,19.742,7.184,25.694 l0.03-0.031c4.372,2.935,9.918,4.694,15.957,4.694c0-6.784,0-11.577,0-18.001c-6.039,0-11.585-1.759-15.957-4.694L58.452,222.932z" fill="#DDA36F"></path><path style="" d="M261.444,215.24c-1.663,3.008-4.134,5.638-7.184,7.692l-0.03-0.031 c-4.372,2.935-9.918,4.694-15.957,4.694c0,6.361,0,11.176,0,18.001c6.039,0,11.585-1.759,15.957-4.694l0.03,0.031 C263.106,234.976,266.515,224.413,261.444,215.24z" fill="#DDA36F"></path></g><path style="" d="M238.383,230.391v-27.507c0,0-19.612,3.743-32.586-12.711c-2.438-3.092-6.818-3.798-10.008-1.487 c-19.393,14.055-74.039,35.802-121.496,14.198v15.714h-0.092c-0.179,17.184-0.003,43.551,2.301,53.293 c2.984,12.602,8.916,24.366,17.565,34.441c49.812,57.91,144.308,21.963,144.308-53.418c-0.016-9.286-0.018-16.639-0.015-22.523 L238.383,230.391L238.383,230.391z" fill="#F7CF9C"></path><path style="" d="M106.503,271.891c-2.303-9.743-2.479-36.108-2.3-53.293h0.092v-7.424 c-10.058-1.211-20.183-3.82-30.002-8.289v15.714h-0.092c-0.179,17.184-0.003,43.551,2.3,53.293 c9.465,39.957,48.717,70.054,93.974,61.714C139.167,327.707,113.836,302.845,106.503,271.891z" fill="#EAB883"></path><g><polygon style="" points="165.263,421.367 232.289,367.989 190.366,342.497 190.366,357.578 " fill="#52A5D8"></polygon><polygon style="" points="147.394,421.367 80.368,366.995 121.89,342.497 121.89,355.504 " fill="#52A5D8"></polygon></g><path d="M295.734,152.141l14.809-14.808c2.93-2.929,2.93-7.677,0.001-10.607c-2.929-2.929-7.678-2.93-10.607,0l-20.112,20.111 c-1.407,1.406-2.197,3.314-2.197,5.303c0,1.989,0.79,3.897,2.196,5.303l20.112,20.112c1.465,1.464,3.385,2.197,5.304,2.197 s3.839-0.732,5.304-2.197c2.929-2.929,2.929-7.678,0-10.607L295.734,152.141z" fill="#000000"></path><path d="M377.748,126.725c-2.93-2.929-7.678-2.929-10.608,0c-2.929,2.929-2.929,7.678,0,10.607l14.809,14.808l-14.809,14.809 c-2.929,2.929-2.929,7.678,0,10.607c1.465,1.464,3.385,2.197,5.304,2.197s3.839-0.732,5.304-2.197l20.111-20.112 c2.929-2.929,2.929-7.678,0-10.608L377.748,126.725z" fill="#000000"></path><path d="M351.821,115.859c-3.897-1.417-8.197,0.591-9.614,4.483l-22.588,62.061c-1.417,3.892,0.591,8.196,4.482,9.614 c0.848,0.308,1.713,0.454,2.564,0.454c3.064,0,5.941-1.892,7.049-4.937l22.588-62.061 C357.72,121.579,355.713,117.276,351.821,115.859z" fill="#000000"></path><path d="M330.929,260.31c-0.189-0.46-0.42-0.89-0.689-1.3c-0.271-0.41-0.59-0.79-0.931-1.14c-0.35-0.34-0.729-0.66-1.14-0.931 c-0.41-0.27-0.84-0.5-1.3-0.69c-0.45-0.19-0.92-0.33-1.4-0.43c-0.97-0.19-1.96-0.19-2.93,0c-0.48,0.1-0.95,0.24-1.4,0.43 c-0.46,0.19-0.89,0.42-1.3,0.69c-0.41,0.271-0.79,0.591-1.14,0.931c-0.351,0.35-0.66,0.729-0.93,1.14c-0.271,0.41-0.5,0.84-0.69,1.3 c-0.19,0.45-0.33,0.92-0.43,1.4c-0.101,0.479-0.141,0.979-0.141,1.47c0,0.48,0.04,0.98,0.141,1.46c0.1,0.48,0.239,0.95,0.43,1.4 c0.19,0.46,0.42,0.89,0.69,1.3c0.27,0.41,0.579,0.79,0.93,1.14c0.35,0.34,0.729,0.66,1.14,0.931c0.41,0.27,0.84,0.5,1.3,0.689 c0.45,0.19,0.92,0.33,1.4,0.431c0.48,0.1,0.97,0.14,1.46,0.14s0.99-0.04,1.47-0.14c0.48-0.101,0.95-0.24,1.4-0.431 c0.46-0.189,0.89-0.42,1.3-0.689c0.41-0.271,0.79-0.591,1.14-0.931c1.391-1.399,2.19-3.33,2.19-5.3c0-0.49-0.04-0.99-0.14-1.47 S331.12,260.76,330.929,260.31z" fill="#000000"></path><path d="M190.872,65.119c0.19,0.46,0.42,0.89,0.69,1.3c0.279,0.41,0.59,0.79,0.939,1.14c0.34,0.35,0.721,0.66,1.141,0.93 c0.399,0.27,0.84,0.5,1.29,0.69c0.449,0.19,0.93,0.33,1.399,0.43c0.49,0.1,0.98,0.15,1.47,0.15s0.98-0.05,1.461-0.15 c0.48-0.1,0.949-0.24,1.409-0.43c0.45-0.19,0.891-0.42,1.29-0.69c0.41-0.27,0.801-0.58,1.141-0.93c0.35-0.35,0.66-0.73,0.93-1.14 c0.27-0.41,0.51-0.84,0.69-1.3c0.189-0.45,0.329-0.92,0.43-1.4c0.1-0.48,0.149-0.98,0.149-1.46c0-0.49-0.05-0.99-0.149-1.47 c-0.101-0.48-0.24-0.95-0.43-1.4c-0.181-0.45-0.421-0.89-0.69-1.3c-0.27-0.41-0.58-0.79-0.93-1.14c-0.34-0.34-0.73-0.66-1.141-0.93 c-0.4-0.27-0.84-0.5-1.29-0.69c-0.46-0.19-0.93-0.33-1.409-0.43c-0.961-0.19-1.961-0.19-2.931,0c-0.47,0.1-0.95,0.24-1.399,0.43 c-0.45,0.19-0.891,0.42-1.29,0.69c-0.42,0.27-0.801,0.59-1.141,0.93c-0.35,0.35-0.66,0.73-0.939,1.14c-0.27,0.41-0.5,0.85-0.69,1.3 c-0.18,0.45-0.33,0.92-0.42,1.4c-0.1,0.48-0.15,0.98-0.15,1.47c0,0.48,0.051,0.98,0.15,1.46 C190.541,64.199,190.692,64.669,190.872,65.119z" fill="#000000"></path><path d="M216.303,65.129c0.181,0.45,0.41,0.88,0.69,1.29c0.27,0.41,0.58,0.8,0.93,1.14c0.341,0.35,0.73,0.66,1.141,0.93 c0.4,0.27,0.84,0.5,1.29,0.69c0.46,0.19,0.93,0.33,1.41,0.43c0.48,0.1,0.97,0.15,1.46,0.15c0.489,0,0.979-0.05,1.47-0.15 c0.48-0.1,0.95-0.24,1.399-0.43c0.45-0.19,0.891-0.42,1.29-0.69c0.42-0.27,0.801-0.58,1.15-0.93c0.34-0.35,0.65-0.73,0.93-1.14 c0.27-0.41,0.5-0.84,0.69-1.29c0.18-0.46,0.33-0.93,0.43-1.41c0.09-0.48,0.141-0.97,0.141-1.46s-0.051-0.98-0.141-1.47 c-0.1-0.48-0.25-0.95-0.43-1.4c-0.19-0.45-0.42-0.89-0.69-1.3c-0.279-0.41-0.59-0.79-0.93-1.14c-0.35-0.34-0.73-0.66-1.15-0.93 c-0.399-0.27-0.84-0.5-1.29-0.69c-0.449-0.19-0.92-0.33-1.399-0.43c-0.97-0.19-1.97-0.19-2.93,0c-0.48,0.1-0.95,0.24-1.41,0.43 c-0.45,0.19-0.891,0.42-1.29,0.69c-0.41,0.27-0.8,0.59-1.141,0.93c-0.35,0.35-0.659,0.73-0.93,1.14c-0.28,0.41-0.51,0.85-0.69,1.3 c-0.189,0.45-0.34,0.92-0.43,1.4c-0.1,0.48-0.149,0.98-0.149,1.47c0,0.49,0.05,0.98,0.149,1.46 C215.963,64.199,216.114,64.669,216.303,65.129z" fill="#000000"></path><path d="M241.725,65.119c0.189,0.46,0.42,0.89,0.689,1.3c0.271,0.41,0.59,0.79,0.93,1.14c0.351,0.35,0.73,0.66,1.141,0.93 c0.41,0.27,0.84,0.5,1.3,0.69c0.45,0.19,0.92,0.33,1.4,0.43c0.479,0.1,0.979,0.15,1.47,0.15c0.479,0,0.979-0.05,1.46-0.15 c0.479-0.1,0.95-0.24,1.4-0.43c0.46-0.19,0.89-0.42,1.3-0.69c0.41-0.27,0.79-0.58,1.14-0.93c1.39-1.4,2.2-3.33,2.2-5.3 c0-1.98-0.811-3.91-2.2-5.31c-0.35-0.34-0.729-0.66-1.14-0.93c-0.41-0.27-0.84-0.5-1.3-0.69c-0.45-0.19-0.921-0.33-1.4-0.43 c-0.97-0.19-1.96-0.19-2.93,0c-0.481,0.1-0.95,0.24-1.4,0.43c-0.46,0.19-0.89,0.42-1.3,0.69c-0.41,0.27-0.79,0.59-1.141,0.93 c-0.34,0.35-0.659,0.73-0.93,1.14c-0.269,0.41-0.5,0.85-0.689,1.3c-0.19,0.45-0.33,0.92-0.431,1.4c-0.1,0.49-0.149,0.98-0.149,1.47 c0,0.49,0.05,0.98,0.149,1.46C241.395,64.199,241.535,64.669,241.725,65.119z" fill="#000000"></path><path d="M279.88,69.756h115.735c4.143,0,7.5-3.358,7.5-7.5s-3.357-7.5-7.5-7.5H279.88c-4.143,0-7.5,3.358-7.5,7.5 S275.738,69.756,279.88,69.756z" fill="#000000"></path><path d="M427.985,69.756h22.133c4.143,0,7.5-3.358,7.5-7.5s-3.357-7.5-7.5-7.5h-22.133c-4.143,0-7.5,3.358-7.5,7.5 S423.843,69.756,427.985,69.756z" fill="#000000"></path><path d="M482.211,0.001H240.727c-4.142,0-7.5,3.358-7.5,7.5s3.358,7.5,7.5,7.5h241.484c8.153,0,14.788,6.634,14.788,14.789v42.341 c0,4.142,3.357,7.5,7.5,7.5s7.5-3.358,7.5-7.5V29.79C512,13.364,498.637,0.001,482.211,0.001z" fill="#000000"></path><path d="M504.5,99.633c-4.143,0-7.5,3.358-7.5,7.5v126.237H269.813c1.515-4.022,2.003-8.199,1.473-12.377h198.238 c8.326,0,15.099-6.773,15.099-15.1c0-19.852,0-149.97,0-163.419c0-8.325-6.773-15.099-15.099-15.099 c-304.407,0.028-291.118-0.071-292.58,0.078c-7.604,0.775-13.558,7.215-13.558,15.021v40.039c-4.032-0.327-8.161-0.454-12.376-0.36 V29.79c0-8.154,6.634-14.789,14.788-14.789h39.927c4.143,0,7.5-3.358,7.5-7.5s-3.357-7.5-7.5-7.5h-39.927 c-16.426,0-29.789,13.364-29.789,29.79v53.569c-25.774,3.593-50.164,14.939-67.083,31.857 c-32.002,32.002-23.492,74.955-19.237,89.778c-16.654,16.324-7.191,42.648,17.484,47.407c0.367,8.78,1.015,16.581,2.111,21.218 c6.22,26.265,23.862,47.179,45.187,58.619v5.973l-36.98,21.817c-0.291,0.081-31.703,8.769-31.149,8.629 c-19.343,5.211-31.716,19.801-34.238,35.776L0.388,477.251c-2.935,18.234,11.161,34.748,29.603,34.748h150.31 c4.143,0,7.5-3.357,7.5-7.5c0-4.143-3.357-7.5-7.5-7.5H73.586l2.193-45.648c0.199-4.138-2.994-7.653-7.131-7.852 c-4.161-0.209-7.653,2.994-7.852,7.131l-2.227,46.368H29.991c-9.23,0-16.257-8.266-14.794-17.364l11.692-72.668 c3.116-15.325,14.412-21.412,23.353-23.821c0.321-0.086,0.62-0.167,0.922-0.265l27.561-7.626c7.542,6.118,21.535,17.469,27.737,22.5 v51.77c0,4.143,3.357,7.5,7.5,7.5s7.5-3.357,7.5-7.5v-39.601l19.979,16.207c6.44,11.738,23.432,11.791,29.919,0.035l19.996-15.925 v39.284c0,4.143,3.357,7.5,7.5,7.5s7.5-3.357,7.5-7.5v-51.23l27.794-22.134l27.365,6.796c0.991,0.455,19.879,3.704,24.013,24.01 l11.716,72.819c0.692,4.304-0.532,8.676-3.358,11.993c-2.826,3.318-6.947,5.221-11.307,5.221h-27.998l-2.227-46.368 c-0.198-4.137-3.662-7.325-7.852-7.131c-4.137,0.198-7.33,3.714-7.131,7.852l2.193,45.648h-24.261c-4.143,0-7.5,3.357-7.5,7.5 c0,4.143,3.357,7.5,7.5,7.5h67.276c18.388,0,32.393-16.469,29.475-34.598l-11.739-72.965c-2.942-18.634-18.695-32.744-35.037-35.959 l0.011-0.043l-30.001-7.45l-37.34-22.704v-6.257c16.733-8.684,30.343-22.2,38.742-39.041h35.312v30.687 c-10.434,1.312-18.536,10.221-18.536,21.004c0,11.684,9.506,21.189,21.188,21.189h98.701c11.684,0,21.189-9.506,21.189-21.189 c0-10.784-8.103-19.692-18.536-21.004v-30.687c114.087,0,113.525,1.93,124.028-5.92c7.132-5.333,11.964-14.033,11.964-23.869 c0-33.795,0-123.553,0-156.057C512,102.991,508.643,99.633,504.5,99.633z M45.854,368.877c0.121-0.054,0.319-0.147,0.604-0.241 C46.253,368.708,46.051,368.788,45.854,368.877z M245.964,236.806v-25.14C260.048,216.707,259.787,231.862,245.964,236.806z M469.523,205.994H264.121c-0.469-0.505-1.221-1.244-1.325-1.343c8.922-41.681,1.542-84.794-39.544-93.782 c-3.701-0.81-4.387-5.772-15.819-13.737h262.189v108.762C469.621,205.942,469.57,205.994,469.523,205.994z M469.621,42.476v39.655 H178.387V42.476c0-0.047,0.051-0.098,0.098-0.098C482.536,42.432,469.621,42.27,469.621,42.476z M200.258,110.519 c9.257,6.884,9.817,12.824,19.788,15.004c5.771,1.263,16.533,5.097,23.75,16.589c9.709,15.46,8.598,36.903,5.246,54.781 c-2.994-0.881-9.552-2.004-12.535-1.302c-2.956,0.362-15.855,1.206-24.741-10.065c-4.958-6.288-13.876-7.569-20.298-2.915 c-17.907,12.978-68.795,33.239-112.818,13.959c-1.363-0.877-2.977-1.301-4.803-1.17c-3.703,0.05-7.295,0.63-10.692,1.699 C41.376,105.106,155.887,77.649,200.258,110.519z M66.873,211.665c-0.102,9.448-0.18,16.194-0.084,25.116 C52.599,231.632,53.173,216.57,66.873,211.665z M182.947,338.243c0,6.746,0,14.058,0,17.911l-3.123,7.938 c-14.071,9.544-32.423,9.543-46.468,0.038l-3.883-10.028c0-4.7,0-10.866,0-15.548C147.17,344.08,165.893,343.626,182.947,338.243z M114.472,355.629c0.051,3.01,1.253,3.49,15.824,42.143l-36.739-29.804L114.472,355.629z M154.455,418.616 c-14.965-38.641-13.06-33.723-13.37-34.523c10.099,2.888,20.738,2.899,30.856,0.026l-13.577,34.501c0,0,0.001-0.002-0.002,0.005 c-0.432,1.1-1.297,1.331-1.95,1.331C155.508,419.817,154.88,419.716,154.455,418.616z M219.293,368.815 c-8.165,6.502-29.1,23.174-36.713,29.238c13.169-33.47,16.151-39.766,15.368-42.216L219.293,368.815z M186.956,320.678 c-43.469,19.51-92.304-5.046-103.074-50.513c-2.723-11.519-1.863-47.146-2.008-56.325c40.174,13.213,90.512,0.966,118.188-18.929 c9.761,12.312,22.488,15.299,30.901,15.763c0.004,2.65-0.016,5.139-0.018,34.933C230.602,246.773,237.089,298.081,186.956,320.678z M379.543,344.671c0,3.412-2.775,6.188-6.188,6.188h-98.701c-3.412,0-6.188-2.775-6.188-6.188c0-3.413,2.775-6.188,6.188-6.188 c19.268,0,77.628,0,98.701,0C376.767,338.484,379.543,341.259,379.543,344.671z M361.007,323.483h-74.004v-30.502h74.004V323.483z M242.524,277.98c2.208-7.757,3.45-16.366,3.431-25.62c3.798-0.766,7.454-2.155,10.648-3.987h240.396 c-0.043,15.693,0.269,16.281-0.714,19.343c-1.525,4.733-5.295,8.268-9.803,9.63C483.687,278.189,248.326,277.983,242.524,277.98z" fill="#000000"></path></svg>