<!-- icon666.com - MILLIONS vector ICONS FREE --><svg viewBox="0 0 64 64" xmlns="http://www.w3.org/2000/svg"><g id="Layer_41" data-name="Layer 41"><path d="m11.61 50.66 4.71-8.2 13.02-6.37-5.41-4.88-1.29-5.83 4.45-6.7 7.77-1.23 5.19 3.91.65 7.98-4.88 6.91 10.34 4.88 6.86 9.42 6.05-9.75.48-14.57-5.84-12.1-9.8-8.04-14.68-1.98-13.02 4.66-7.98 7.71-4.39 11.09.37 11.47 4.93 10.07z" fill="#78b9eb"></path><path d="m32 2.75a29.25 29.25 0 1 0 29.25 29.25 29.28 29.28 0 0 0 -29.25-29.25zm0 2.5a26.73 26.73 0 0 1 20.93 43.38 22.76 22.76 0 0 0 -15.12-12.94 10.59 10.59 0 1 0 -11.62 0 22.76 22.76 0 0 0 -15.12 12.94 26.73 26.73 0 0 1 20.93-43.38zm0 29.68a8.09 8.09 0 1 1 8.09-8.09 8.1 8.1 0 0 1 -8.09 8.09zm0 23.82a26.65 26.65 0 0 1 -19.07-8 20.32 20.32 0 0 1 38.14 0 26.65 26.65 0 0 1 -19.07 8z" fill="#006df0" style="fill: rgb(26, 26, 26);"></path></g></svg>