<!-- icon666.com - MILLIONS vector ICONS FREE --><svg id="Layer_1" enable-background="new 0 0 512 512" viewBox="0 0 512 512" xmlns="http://www.w3.org/2000/svg"><g><g><g><path d="m496.997 256.008c0-133.103-107.898-241-241-241s-241 107.897-241 241c0 73.859 33.238 139.949 85.561 184.156 18.047-68.984 80.796-119.89 155.439-119.89s137.393 50.905 155.439 119.89c52.323-44.207 85.561-110.297 85.561-184.156z" fill="#00d8e0" style="fill: rgb(137, 247, 251);"></path></g><g><path d="m336.331 175.676c0 44.365-35.967 80.332-80.334 80.332s-80.334-35.967-80.334-80.332c0-44.37 35.967-80.334 80.334-80.334s80.334 35.964 80.334 80.334z" fill="#e7f0ef"></path></g><g><g><path d="m255.997 320.274c-74.644 0-137.393 50.905-155.439 119.89 41.964 35.457 96.199 56.844 155.439 56.844s113.476-21.387 155.439-56.844c-18.046-68.984-80.795-119.89-155.439-119.89z" fill="#008adf"></path></g></g></g><g><path d="m437.019 74.98c-48.352-48.351-112.639-74.98-181.02-74.98-68.379 0-132.666 26.629-181.019 74.98-48.351 48.353-74.98 112.64-74.98 181.02s26.628 132.667 74.98 181.02c48.353 48.351 112.64 74.98 181.019 74.98 68.381 0 132.668-26.629 181.02-74.98 48.353-48.353 74.98-112.64 74.98-181.02s-26.628-132.667-74.98-181.02zm-319.202 359.724c19.683-59.009 75.183-99.437 138.182-99.437 63 0 118.502 40.43 138.183 99.438-38.232 29.63-86.18 47.295-138.183 47.295-52.002 0-99.95-17.665-138.182-47.296zm300.338-21.455c-26.928-64.621-90.521-107.982-162.156-107.982s-135.228 43.36-162.155 107.981c-39.49-40.711-63.844-96.185-63.844-157.248 0-124.617 101.383-226 225.999-226 124.617 0 226 101.383 226 226 0 61.063-24.353 116.538-63.844 157.249z" fill="#000000"></path><path d="m255.999 80.334c-52.566 0-95.333 42.767-95.333 95.333s42.767 95.333 95.333 95.333c52.568 0 95.334-42.767 95.334-95.333s-42.766-95.333-95.334-95.333zm0 160.666c-36.024 0-65.333-29.309-65.333-65.333s29.308-65.333 65.333-65.333 65.334 29.309 65.334 65.333-29.309 65.333-65.334 65.333z" fill="#000000"></path></g></g></svg>