<!-- icon666.com - MILLIONS vector ICONS FREE --><svg id="Layer_35" enable-background="new 0 0 64 64" viewBox="0 0 64 64" xmlns="http://www.w3.org/2000/svg"><path d="m62 10v8c0 2.21-1.79 4-4 4h-24-11l-.03-.02c1.88-2.12 3.03-4.91 3.03-7.98s-1.15-5.86-3.03-7.98l.03-.02h35c2.21 0 4 1.79 4 4z" fill="#fcd770"/><circle cx="14" cy="14" fill="#ffeaa7" r="12"/><path d="m21.93 22.99.01.01c-2.11 1.87-4.89 3-7.94 3s-5.83-1.13-7.94-3l.01-.01c.5-3.94 3.85-6.99 7.93-6.99s7.43 3.05 7.93 6.99z" fill="#ff826e"/><circle cx="14" cy="11" fill="#f0d0b4" r="5"/><path d="m44 32v8h-5v-8c0-2.76-2.24-5-5-5-1.38 0-2.63.56-3.54 1.46-.9.91-1.46 2.16-1.46 3.54v8h-5v-8c0-2.76 1.12-5.26 2.93-7.07s4.31-2.93 7.07-2.93c5.52 0 10 4.48 10 10z" fill="#969faa"/><path d="m46 42v18c0 1.1-.9 2-2 2h-20c-1.1 0-2-.9-2-2v-18c0-1.1.9-2 2-2h5 10 5c1.1 0 2 .9 2 2z" fill="#b4dd7f"/><path d="m38 48c0 1.48-.81 2.75-2 3.45v4.55c0 .55-.22 1.05-.59 1.41-.36.37-.86.59-1.41.59-1.1 0-2-.9-2-2v-4.55c-1.45-.85-2.34-2.56-1.88-4.45.35-1.42 1.5-2.56 2.92-2.89 2.63-.61 4.96 1.37 4.96 3.89z" fill="#e6e9ed"/><path d="m14.8 44.4c.34-.25.75-.4 1.2-.4 1.1 0 2 .9 2 2s-.9 2-2 2-2-.9-2-2c0-.65.32-1.23.8-1.6z" fill="#fcd770"/><path d="m53.2 44.4c.48.37.8.95.8 1.6 0 1.1-.9 2-2 2s-2-.9-2-2 .9-2 2-2c.45 0 .86.15 1.2.4z" fill="#fcd770"/><path d="m55 11h2v2h-2z"/><path d="m55 15h2v2h-2z"/><path d="m57 13h2v2h-2z"/><path d="m53 13h2v2h-2z"/><path d="m47 11h2v2h-2z"/><path d="m47 15h2v2h-2z"/><path d="m49 13h2v2h-2z"/><path d="m45 13h2v2h-2z"/><path d="m39 11h2v2h-2z"/><path d="m39 15h2v2h-2z"/><path d="m41 13h2v2h-2z"/><path d="m37 13h2v2h-2z"/><path d="m31 11h2v2h-2z"/><path d="m31 15h2v2h-2z"/><path d="m33 13h2v2h-2z"/><path d="m29 13h2v2h-2z"/><path d="m58 5h-34.641c-2.367-2.46-5.684-4-9.359-4-7.168 0-13 5.832-13 13s5.832 13 13 13c3.675 0 6.992-1.54 9.359-4h4.336c-2.834 1.992-4.695 5.28-4.695 9v7.184c-1.161.414-2 1.514-2 2.816v18c0 1.654 1.346 3 3 3h20c1.654 0 3-1.346 3-3v-18c0-1.302-.839-2.402-2-2.816v-7.184c0-3.72-1.861-7.008-4.695-9h17.695c2.757 0 5-2.243 5-5v-8c0-2.757-2.243-5-5-5zm-55 9c0-6.065 4.935-11 11-11s11 4.935 11 11c0 2.66-.949 5.101-2.526 7.005-.832-2.356-2.609-4.239-4.853-5.232 1.442-1.096 2.379-2.825 2.379-4.773 0-3.309-2.691-6-6-6s-6 2.691-6 6c0 1.948.937 3.677 2.379 4.773-2.244.993-4.021 2.876-4.853 5.232-1.577-1.904-2.526-4.345-2.526-7.005zm7-3c0-2.206 1.794-4 4-4s4 1.794 4 4-1.794 4-4 4-4-1.794-4-4zm-2.847 11.594c.658-3.223 3.51-5.594 6.847-5.594s6.189 2.371 6.847 5.594c-1.881 1.502-4.259 2.406-6.847 2.406s-4.966-.904-6.847-2.406zm37.847 37.406c0 .552-.448 1-1 1h-20c-.552 0-1-.448-1-1v-18c0-.552.448-1 1-1h20c.552 0 1 .448 1 1zm-7-21h-8v-7c0-2.206 1.794-4 4-4s4 1.794 4 4zm5-7v7h-3v-7c0-3.309-2.691-6-6-6s-6 2.691-6 6v7h-3v-7c0-4.962 4.037-9 9-9s9 4.038 9 9zm18-14c0 1.654-1.346 3-3 3h-33.063c1.299-2.023 2.063-4.422 2.063-7s-.764-4.977-2.063-7h33.063c1.654 0 3 1.346 3 3z"/><path d="m37.107 44.083c-1.203-.955-2.769-1.302-4.294-.945-1.788.416-3.226 1.838-3.662 3.621-.487 1.995.25 4.022 1.849 5.222v4.019c0 1.654 1.346 3 3 3s3-1.346 3-3v-4.021c1.246-.939 2-2.416 2-3.979 0-1.534-.689-2.962-1.893-3.917zm-1.61 6.498-.497.289v5.13c0 .552-.448 1-1 1s-1-.448-1-1v-5.13l-.497-.289c-1.185-.689-1.737-2.003-1.408-3.348.255-1.041 1.128-1.905 2.172-2.148.249-.058.496-.086.739-.086.677 0 1.318.222 1.857.65.723.574 1.137 1.43 1.137 2.351 0 1.068-.562 2.033-1.503 2.581z"/><path d="m56.822 32.876c-.46 3.687-1.83 7.214-3.959 10.265-.275-.083-.561-.141-.863-.141-1.654 0-3 1.346-3 3s1.346 3 3 3 3-1.346 3-3c0-.624-.192-1.203-.519-1.684 2.327-3.324 3.824-7.171 4.326-11.192zm-4.822 14.124c-.552 0-1-.448-1-1s.448-1 1-1 1 .448 1 1-.448 1-1 1z"/><path d="m56.983 29.112c.011.294.017.591.017.888 0 .321-.007.641-.02.959l1.998.082c.015-.345.022-.692.022-1.041 0-.323-.006-.645-.019-.964z"/><path d="m16 43c-.302 0-.588.058-.863.142-2.129-3.051-3.499-6.578-3.959-10.265l-1.984.248c.501 4.022 1.999 7.869 4.326 11.192-.328.48-.52 1.059-.52 1.683 0 1.654 1.346 3 3 3s3-1.346 3-3-1.346-3-3-3zm0 4c-.552 0-1-.448-1-1s.448-1 1-1 1 .448 1 1-.448 1-1 1z"/><path d="m11 30c0-.297.006-.594.017-.888l-1.998-.076c-.013.319-.019.641-.019.964 0 .349.007.696.021 1.041l1.998-.082c-.012-.318-.019-.638-.019-.959z"/></svg>